<svg xmlns="http://www.w3.org/2000/svg" viewBox="0 0 332.8 344.4">
 <style type="text/css">
  .st0{fill:#F9F9F9;}
  .st1{fill:#F7F7F7;}
  .st2{fill:#F5F5F5;}
  .st3{fill:#F4F4F4;}
  .st4{fill:#F2F2F2;}
  .st5{fill:#F0F0F0;}
  .st6{fill:#EBEBEB;}
  .st7{fill:#F6F6F6;}
  .st8{fill:#F1F1F1;}
  .st9{fill:#EDEDED;}
 </style>
 <path class="st0" d="M332,59.8c0-0.4-0.4-0.6-0.8-0.4l-20.7,12c-0.3,0.2-0.3,0.7,0,0.9l20.7,12c0.3,0.2,0.8,0,0.8-0.4V59.8z"/>
 <path class="st0" d="M286.8,84.1l20.7-12c0.3-0.2,0.3-0.7,0-0.9l-20.7-12c-0.3-0.2-0.8,0-0.8,0.4v23.9	C286,84.1,286.4,84.3,286.8,84.1z"/>
 <path class="st0" d="M286.8,55.5l20.7-12c0.3-0.2,0.3-0.7,0-0.9l-20.7-12c-0.3-0.2-0.8,0-0.8,0.4V55C286,55.4,286.4,55.7,286.8,55.5z"/>
 <path class="st1" d="M307.5,45.1l-20.7,12c-0.3,0.2-0.3,0.7,0,0.9l20.7,12c0.3,0.2,0.8,0,0.8-0.4V45.5	C308.2,45.1,307.8,44.9,307.5,45.1z"/>
 <path class="st2" d="M308.2,16.7c0-0.4-0.4-0.6-0.8-0.4l-20.7,12c-0.3,0.2-0.3,0.7,0,0.9l20.7,12c0.3,0.2,0.8,0,0.8-0.4V16.7z"/>
 <path class="st2" d="M331.3,30.7l-20.7,12c-0.3,0.2-0.3,0.7,0,0.9l20.7,12c0.3,0.2,0.8,0,0.8-0.4V31.1	C332,30.7,331.6,30.5,331.3,30.7z"/>
 <path class="st0" d="M310.5,41.1l20.7-12c0.3-0.2,0.3-0.7,0-0.9l-20.7-12c-0.3-0.2-0.8,0-0.8,0.4v23.9	C309.8,41,310.2,41.3,310.5,41.1z"/>
 <path class="st3" d="M310.5,69.9l20.7-12c0.3-0.2,0.3-0.7,0-0.9l-20.7-12c-0.3-0.2-0.8,0-0.8,0.4v23.9	C309.8,69.8,310.2,70.1,310.5,69.9z"/>
 <path class="st3" d="M331.3,2l-20.7,12c-0.3,0.2-0.3,0.7,0,0.9l20.7,12c0.3,0.2,0.8,0,0.8-0.4V2.5C332,2.1,331.6,1.8,331.3,2z"/>
 <path class="st0" d="M286.8,26.8l20.7-12c0.3-0.2,0.3-0.7,0-0.9L286.8,2c-0.3-0.2-0.8,0-0.8,0.4v23.9C286,26.8,286.4,27,286.8,26.8z"/>
 <path class="st0" d="M332,145.9c0-0.4-0.4-0.6-0.8-0.4l-20.7,12c-0.3,0.2-0.3,0.7,0,0.9l20.7,12c0.3,0.2,0.8,0,0.8-0.4V145.9z"/>
 <path class="st0" d="M286.8,170.2l20.7-12c0.3-0.2,0.3-0.7,0-0.9l-20.7-12c-0.3-0.2-0.8,0-0.8,0.4v23.9	C286,170.2,286.4,170.4,286.8,170.2z"/>
 <path class="st4" d="M286.8,141.6l20.7-12c0.3-0.2,0.3-0.7,0-0.9l-20.7-12c-0.3-0.2-0.8,0-0.8,0.4v23.9	C286,141.5,286.4,141.8,286.8,141.6z"/>
 <path class="st2" d="M307.5,131.2l-20.7,12c-0.3,0.2-0.3,0.7,0,0.9l20.7,12c0.3,0.2,0.8,0,0.8-0.4v-23.9	C308.2,131.2,307.8,131,307.5,131.2z"/>
 <path class="st5" d="M308.2,102.8c0-0.4-0.4-0.6-0.8-0.4l-20.7,12c-0.3,0.2-0.3,0.7,0,0.9l20.7,12c0.3,0.2,0.8,0,0.8-0.4V102.8z"/>
 <path class="st0" d="M331.3,116.8l-20.7,12c-0.3,0.2-0.3,0.7,0,0.9l20.7,12c0.3,0.2,0.8,0,0.8-0.4v-23.9	C332,116.8,331.6,116.6,331.3,116.8z"/>
 <path class="st3" d="M310.5,127.2l20.7-12c0.3-0.2,0.3-0.7,0-0.9l-20.7-12c-0.3-0.2-0.8,0-0.8,0.4v23.9	C309.8,127.1,310.2,127.4,310.5,127.2z"/>
 <path class="st2" d="M310.5,156l20.7-12c0.3-0.2,0.3-0.7,0-0.9l-20.7-12c-0.3-0.2-0.8,0-0.8,0.4v23.9	C309.8,155.9,310.2,156.2,310.5,156z"/>
 <path class="st4" d="M310.5,98.5l20.7-12c0.3-0.2,0.3-0.7,0-0.9l-20.7-12c-0.3-0.2-0.8,0-0.8,0.4v23.9	C309.8,98.5,310.2,98.7,310.5,98.5z"/>
 <path class="st0" d="M331.3,88.1l-20.7,12c-0.3,0.2-0.3,0.7,0,0.9l20.7,12c0.3,0.2,0.8,0,0.8-0.4V88.6	C332,88.2,331.6,87.9,331.3,88.1z"/>
 <path class="st0" d="M307.5,73.7l-20.7,12c-0.3,0.2-0.3,0.7,0,0.9l20.7,12c0.3,0.2,0.8,0,0.8-0.4V74.2	C308.2,73.8,307.8,73.5,307.5,73.7z"/>
 <path class="st4" d="M286.8,112.9l20.7-12c0.3-0.2,0.3-0.7,0-0.9l-20.7-12c-0.3-0.2-0.8,0-0.8,0.4v23.9	C286,112.9,286.4,113.1,286.8,112.9z"/>
 <path class="st0" d="M332,232c0-0.4-0.4-0.6-0.8-0.4l-20.7,12c-0.3,0.2-0.3,0.7,0,0.9l20.7,12c0.3,0.2,0.8,0,0.8-0.4V232z"/>
 <path class="st1" d="M286.8,256.3l20.7-12c0.3-0.2,0.3-0.7,0-0.9l-20.7-12c-0.3-0.2-0.8,0-0.8,0.4v23.9	C286,256.3,286.4,256.5,286.8,256.3z"/>
 <path class="st2" d="M286.8,227.7l20.7-12c0.3-0.2,0.3-0.7,0-0.9l-20.7-12c-0.3-0.2-0.8,0-0.8,0.4v23.9	C286,227.6,286.4,227.9,286.8,227.7z"/>
 <path class="st4" d="M307.5,217.3l-20.7,12c-0.3,0.2-0.3,0.7,0,0.9l20.7,12c0.3,0.2,0.8,0,0.8-0.4v-23.9	C308.2,217.3,307.8,217.1,307.5,217.3z"/>
 <path class="st5" d="M308.2,188.9c0-0.4-0.4-0.6-0.8-0.4l-20.7,12c-0.3,0.2-0.3,0.7,0,0.9l20.7,12c0.3,0.2,0.8,0,0.8-0.4V188.9z"/>
 <path class="st0" d="M331.3,202.9l-20.7,12c-0.3,0.2-0.3,0.7,0,0.9l20.7,12c0.3,0.2,0.8,0,0.8-0.4v-23.9	C332,202.9,331.6,202.7,331.3,202.9z"/>
 <path class="st1" d="M310.5,213.3l20.7-12c0.3-0.2,0.3-0.7,0-0.9l-20.7-12c-0.3-0.2-0.8,0-0.8,0.4v23.9	C309.8,213.2,310.2,213.5,310.5,213.3z"/>
 <path class="st0" d="M310.5,242.1l20.7-12c0.3-0.2,0.3-0.7,0-0.9l-20.7-12c-0.3-0.2-0.8,0-0.8,0.4v23.9	C309.8,242,310.2,242.3,310.5,242.1z"/>
 <path class="st4" d="M310.5,184.6l20.7-12c0.3-0.2,0.3-0.7,0-0.9l-20.7-12c-0.3-0.2-0.8,0-0.8,0.4v23.9	C309.8,184.6,310.2,184.8,310.5,184.6z"/>
 <path class="st0" d="M331.3,174.2l-20.7,12c-0.3,0.2-0.3,0.7,0,0.9l20.7,12c0.3,0.2,0.8,0,0.8-0.4v-23.9	C332,174.3,331.6,174,331.3,174.2z"/>
 <path class="st0" d="M307.5,159.8l-20.7,12c-0.3,0.2-0.3,0.7,0,0.9l20.7,12c0.3,0.2,0.8,0,0.8-0.4v-23.9	C308.2,159.9,307.8,159.6,307.5,159.8z"/>
 <path class="st1" d="M286.8,199l20.7-12c0.3-0.2,0.3-0.7,0-0.9l-20.7-12c-0.3-0.2-0.8,0-0.8,0.4v23.9C286,199,286.4,199.2,286.8,199z"/>
 <path class="st0" d="M331.3,317.6l-20.7,12c-0.3,0.2-0.3,0.7,0,0.9l20.7,12c0.3,0.2,0.8,0,0.8-0.4v-23.9	C332,317.7,331.6,317.5,331.3,317.6z"/>
 <path class="st2" d="M307.5,330.5c0.3-0.2,0.3-0.7,0-0.9l-20.7-12c-0.3-0.2-0.8,0-0.8,0.4V342c0,0.4,0.4,0.6,0.8,0.4L307.5,330.5z"/>
 <path class="st3" d="M286.8,313.8l20.7-12c0.3-0.2,0.3-0.7,0-0.9l-20.7-12c-0.3-0.2-0.8,0-0.8,0.4v23.9	C286,313.7,286.4,314,286.8,313.8z"/>
 <path class="st3" d="M307.5,303.4l-20.7,12c-0.3,0.2-0.3,0.7,0,0.9l20.7,12c0.3,0.2,0.8,0,0.8-0.4v-23.9	C308.2,303.4,307.8,303.2,307.5,303.4z"/>
 <path class="st0" d="M308.2,275c0-0.4-0.4-0.6-0.8-0.4l-20.7,12c-0.3,0.2-0.3,0.7,0,0.9l20.7,12c0.3,0.2,0.8,0,0.8-0.4V275z"/>
 <path class="st0" d="M331.3,289l-20.7,12c-0.3,0.2-0.3,0.7,0,0.9l20.7,12c0.3,0.2,0.8,0,0.8-0.4v-23.9	C332,289,331.6,288.8,331.3,289z"/>
 <path class="st3" d="M310.5,299.4l20.7-12c0.3-0.2,0.3-0.7,0-0.9l-20.7-12c-0.3-0.2-0.8,0-0.8,0.4v23.9	C309.8,299.3,310.2,299.6,310.5,299.4z"/>
 <path class="st0" d="M310.5,328.2l20.7-12c0.3-0.2,0.3-0.7,0-0.9l-20.7-12c-0.3-0.2-0.8,0-0.8,0.4v23.9	C309.8,328.1,310.2,328.4,310.5,328.2z"/>
 <path class="st3" d="M310.5,270.7l20.7-12c0.3-0.2,0.3-0.7,0-0.9l-20.7-12c-0.3-0.2-0.8,0-0.8,0.4v23.9	C309.8,270.7,310.2,270.9,310.5,270.7z"/>
 <path class="st0" d="M331.3,260.3l-20.7,12c-0.3,0.2-0.3,0.7,0,0.9l20.7,12c0.3,0.2,0.8,0,0.8-0.4v-23.9	C332,260.4,331.6,260.1,331.3,260.3z"/>
 <path class="st0" d="M307.5,245.9l-20.7,12c-0.3,0.2-0.3,0.7,0,0.9l20.7,12c0.3,0.2,0.8,0,0.8-0.4v-23.9	C308.2,246,307.8,245.7,307.5,245.9z"/>
 <path class="st2" d="M286.8,285.1l20.7-12c0.3-0.2,0.3-0.7,0-0.9l-20.7-12c-0.3-0.2-0.8,0-0.8,0.4v23.9	C286,285.1,286.4,285.3,286.8,285.1z"/>
 <path class="st5" d="M284.5,59.8c0-0.4-0.4-0.6-0.8-0.4l-20.7,12c-0.3,0.2-0.3,0.7,0,0.9l20.7,12c0.3,0.2,0.8,0,0.8-0.4V59.8z"/>
 <path class="st3" d="M239.2,84.1l20.7-12c0.3-0.2,0.3-0.7,0-0.9l-20.7-12c-0.3-0.2-0.8,0-0.8,0.4v23.9	C238.5,84.1,238.9,84.3,239.2,84.1z"/>
 <path class="st4" d="M239.2,55.5l20.7-12c0.3-0.2,0.3-0.7,0-0.9l-20.7-12c-0.3-0.2-0.8,0-0.8,0.4V55	C238.5,55.4,238.9,55.7,239.2,55.5z"/>
 <path class="st0" d="M259.9,45.1l-20.7,12c-0.3,0.2-0.3,0.7,0,0.9l20.7,12c0.3,0.2,0.8,0,0.8-0.4V45.5	C260.7,45.1,260.3,44.9,259.9,45.1z"/>
 <path class="st3" d="M260.7,16.7c0-0.4-0.4-0.6-0.8-0.4l-20.7,12c-0.3,0.2-0.3,0.7,0,0.9l20.7,12c0.3,0.2,0.8,0,0.8-0.4V16.7z"/>
 <path class="st0" d="M283.7,30.7l-20.7,12c-0.3,0.2-0.3,0.7,0,0.9l20.7,12c0.3,0.2,0.8,0,0.8-0.4V31.1	C284.5,30.7,284,30.5,283.7,30.7z"/>
 <path class="st0" d="M263,41.1l20.7-12c0.3-0.2,0.3-0.7,0-0.9l-20.7-12c-0.3-0.2-0.8,0-0.8,0.4v23.9C262.2,41,262.7,41.3,263,41.1z"/>
 <path class="st2" d="M263,69.9l20.7-12c0.3-0.2,0.3-0.7,0-0.9l-20.7-12c-0.3-0.2-0.8,0-0.8,0.4v23.9C262.2,69.8,262.7,70.1,263,69.9z"/>
 <path class="st0" d="M283.7,2L263,14c-0.3,0.2-0.3,0.7,0,0.9l20.7,12c0.3,0.2,0.8,0,0.8-0.4V2.5C284.5,2.1,284,1.8,283.7,2z"/>
 <path class="st1" d="M239.2,26.8l20.7-12c0.3-0.2,0.3-0.7,0-0.9L239.2,2c-0.3-0.2-0.8,0-0.8,0.4v23.9 C238.5,26.8,238.9,27,239.2,26.8z"/>
 <path class="st6" d="M284.5,145.9c0-0.4-0.4-0.6-0.8-0.4l-20.7,12c-0.3,0.2-0.3,0.7,0,0.9l20.7,12c0.3,0.2,0.8,0,0.8-0.4V145.9z"/>
 <path class="st4" d="M239.2,170.2l20.7-12c0.3-0.2,0.3-0.7,0-0.9l-20.7-12c-0.3-0.2-0.8,0-0.8,0.4v23.9	C238.5,170.2,238.9,170.4,239.2,170.2z"/>
 <path class="st3" d="M239.2,141.6l20.7-12c0.3-0.2,0.3-0.7,0-0.9l-20.7-12c-0.3-0.2-0.8,0-0.8,0.4v23.9	C238.5,141.5,238.9,141.8,239.2,141.6z"/>
 <path class="st0" d="M259.9,131.2l-20.7,12c-0.3,0.2-0.3,0.7,0,0.9l20.7,12c0.3,0.2,0.8,0,0.8-0.4v-23.9	C260.7,131.2,260.3,131,259.9,131.2z"/>
 <path class="st7" d="M260.7,102.8c0-0.4-0.4-0.6-0.8-0.4l-20.7,12c-0.3,0.2-0.3,0.7,0,0.9l20.7,12c0.3,0.2,0.8,0,0.8-0.4V102.8z"/>
 <path class="st4" d="M283.7,116.8l-20.7,12c-0.3,0.2-0.3,0.7,0,0.9l20.7,12c0.3,0.2,0.8,0,0.8-0.4v-23.9	C284.5,116.8,284,116.6,283.7,116.8z"/>
 <path class="st0" d="M263,127.2l20.7-12c0.3-0.2,0.3-0.7,0-0.9l-20.7-12c-0.3-0.2-0.8,0-0.8,0.4v23.9	C262.2,127.1,262.7,127.4,263,127.2z"/>
 <path class="st7" d="M263,156l20.7-12c0.3-0.2,0.3-0.7,0-0.9l-20.7-12c-0.3-0.2-0.8,0-0.8,0.4v23.9C262.2,155.9,262.7,156.2,263,156z"/>
 <path class="st0" d="M263,98.5l20.7-12c0.3-0.2,0.3-0.7,0-0.9l-20.7-12c-0.3-0.2-0.8,0-0.8,0.4v23.9C262.2,98.5,262.7,98.7,263,98.5z"/>
 <path class="st0" d="M283.7,88.1l-20.7,12c-0.3,0.2-0.3,0.7,0,0.9l20.7,12c0.3,0.2,0.8,0,0.8-0.4V88.6	C284.5,88.2,284,87.9,283.7,88.1z"/>
 <path class="st1" d="M259.9,73.7l-20.7,12c-0.3,0.2-0.3,0.7,0,0.9l20.7,12c0.3,0.2,0.8,0,0.8-0.4V74.2	C260.7,73.8,260.3,73.5,259.9,73.7z"/>
 <path class="st2" d="M239.2,112.9l20.7-12c0.3-0.2,0.3-0.7,0-0.9l-20.7-12c-0.3-0.2-0.8,0-0.8,0.4v23.9	C238.5,112.9,238.9,113.1,239.2,112.9z"/>
 <path class="st2" d="M284.5,232c0-0.4-0.4-0.6-0.8-0.4l-20.7,12c-0.3,0.2-0.3,0.7,0,0.9l20.7,12c0.3,0.2,0.8,0,0.8-0.4V232z"/>
 <path class="st2" d="M239.2,256.3l20.7-12c0.3-0.2,0.3-0.7,0-0.9l-20.7-12c-0.3-0.2-0.8,0-0.8,0.4v23.9	C238.5,256.3,238.9,256.5,239.2,256.3z"/>
 <path class="st0" d="M239.2,227.7l20.7-12c0.3-0.2,0.3-0.7,0-0.9l-20.7-12c-0.3-0.2-0.8,0-0.8,0.4v23.9	C238.5,227.6,238.9,227.9,239.2,227.7z"/>
 <path class="st0" d="M259.9,217.3l-20.7,12c-0.3,0.2-0.3,0.7,0,0.9l20.7,12c0.3,0.2,0.8,0,0.8-0.4v-23.9	C260.7,217.3,260.3,217.1,259.9,217.3z"/>
 <path class="st1" d="M260.7,188.9c0-0.4-0.4-0.6-0.8-0.4l-20.7,12c-0.3,0.2-0.3,0.7,0,0.9l20.7,12c0.3,0.2,0.8,0,0.8-0.4V188.9z"/>
 <path class="st7" d="M283.7,202.9l-20.7,12c-0.3,0.2-0.3,0.7,0,0.9l20.7,12c0.3,0.2,0.8,0,0.8-0.4v-23.9	C284.5,202.9,284,202.7,283.7,202.9z"/>
 <path class="st2" d="M263,213.3l20.7-12c0.3-0.2,0.3-0.7,0-0.9l-20.7-12c-0.3-0.2-0.8,0-0.8,0.4v23.9	C262.2,213.2,262.7,213.5,263,213.3z"/>
 <path class="st0" d="M263,242.1l20.7-12c0.3-0.2,0.3-0.7,0-0.9l-20.7-12c-0.3-0.2-0.8,0-0.8,0.4v23.9	C262.2,242,262.7,242.3,263,242.1z"/>
 <path class="st2" d="M263,184.6l20.7-12c0.3-0.2,0.3-0.7,0-0.9l-20.7-12c-0.3-0.2-0.8,0-0.8,0.4v23.9	C262.2,184.6,262.7,184.8,263,184.6z"/>
 <path class="st2" d="M283.7,174.2l-20.7,12c-0.3,0.2-0.3,0.7,0,0.9l20.7,12c0.3,0.2,0.8,0,0.8-0.4v-23.9	C284.5,174.3,284,174,283.7,174.2z"/>
 <path class="st0" d="M259.9,159.8l-20.7,12c-0.3,0.2-0.3,0.7,0,0.9l20.7,12c0.3,0.2,0.8,0,0.8-0.4v-23.9	C260.7,159.9,260.3,159.6,259.9,159.8z"/>
 <path class="st5" d="M239.2,199l20.7-12c0.3-0.2,0.3-0.7,0-0.9l-20.7-12c-0.3-0.2-0.8,0-0.8,0.4v23.9	C238.5,199,238.9,199.2,239.2,199z"/>
 <path class="st0" d="M283.7,317.6l-20.7,12c-0.3,0.2-0.3,0.7,0,0.9l20.7,12c0.3,0.2,0.8,0,0.8-0.4v-23.9	C284.5,317.7,284,317.5,283.7,317.6z"/>
 <path class="st3" d="M259.9,330.5c0.3-0.2,0.3-0.7,0-0.9l-20.7-12c-0.3-0.2-0.8,0-0.8,0.4V342c0,0.4,0.4,0.6,0.8,0.4L259.9,330.5z"/>
 <path class="st0" d="M239.2,313.8l20.7-12c0.3-0.2,0.3-0.7,0-0.9l-20.7-12c-0.3-0.2-0.8,0-0.8,0.4v23.9	C238.5,313.7,238.9,314,239.2,313.8z"/>
 <path class="st3" d="M259.9,303.4l-20.7,12c-0.3,0.2-0.3,0.7,0,0.9l20.7,12c0.3,0.2,0.8,0,0.8-0.4v-23.9	C260.7,303.4,260.3,303.2,259.9,303.4z"/>
 <path class="st8" d="M260.7,275c0-0.4-0.4-0.6-0.8-0.4l-20.7,12c-0.3,0.2-0.3,0.7,0,0.9l20.7,12c0.3,0.2,0.8,0,0.8-0.4V275z"/>
 <path class="st0" d="M283.7,289l-20.7,12c-0.3,0.2-0.3,0.7,0,0.9l20.7,12c0.3,0.2,0.8,0,0.8-0.4v-23.9	C284.5,289,284,288.8,283.7,289z"/>
 <path class="st0" d="M263,299.4l20.7-12c0.3-0.2,0.3-0.7,0-0.9l-20.7-12c-0.3-0.2-0.8,0-0.8,0.4v23.9	C262.2,299.3,262.7,299.6,263,299.4z"/>
 <path class="st0" d="M263,328.2l20.7-12c0.3-0.2,0.3-0.7,0-0.9l-20.7-12c-0.3-0.2-0.8,0-0.8,0.4v23.9	C262.2,328.1,262.7,328.4,263,328.2z"/>
 <path class="st0" d="M263,270.7l20.7-12c0.3-0.2,0.3-0.7,0-0.9l-20.7-12c-0.3-0.2-0.8,0-0.8,0.4v23.9	C262.2,270.7,262.7,270.9,263,270.7z"/>
 <path class="st2" d="M283.7,260.3l-20.7,12c-0.3,0.2-0.3,0.7,0,0.9l20.7,12c0.3,0.2,0.8,0,0.8-0.4v-23.9	C284.5,260.4,284,260.1,283.7,260.3z"/>
 <path class="st0" d="M259.9,245.9l-20.7,12c-0.3,0.2-0.3,0.7,0,0.9l20.7,12c0.3,0.2,0.8,0,0.8-0.4v-23.9	C260.7,246,260.3,245.7,259.9,245.9z"/>
 <path class="st7" d="M239.2,285.1l20.7-12c0.3-0.2,0.3-0.7,0-0.9l-20.7-12c-0.3-0.2-0.8,0-0.8,0.4v23.9	C238.5,285.1,238.9,285.3,239.2,285.1z"/>
 <path class="st0" d="M236.2,59.3l-20.7,12c-0.3,0.2-0.3,0.7,0,0.9l20.7,12c0.3,0.2,0.8,0,0.8-0.4V59.8	C236.9,59.4,236.5,59.2,236.2,59.3z"/>
 <path class="st2" d="M191.7,84.1l20.7-12c0.3-0.2,0.3-0.7,0-0.9l-20.7-12c-0.3-0.2-0.8,0-0.8,0.4v23.9	C190.9,84.1,191.4,84.3,191.7,84.1z"/>
 <path class="st2" d="M191.7,55.5l20.7-12c0.3-0.2,0.3-0.7,0-0.9l-20.7-12c-0.3-0.2-0.8,0-0.8,0.4V55	C190.9,55.4,191.4,55.7,191.7,55.5z"/>
 <path class="st0" d="M212.4,45.1l-20.7,12c-0.3,0.2-0.3,0.7,0,0.9l20.7,12c0.3,0.2,0.8,0,0.8-0.4V45.5	C213.2,45.1,212.7,44.9,212.4,45.1z"/>
 <path class="st2" d="M212.4,16.3l-20.7,12c-0.3,0.2-0.3,0.7,0,0.9l20.7,12c0.3,0.2,0.8,0,0.8-0.4V16.7	C213.2,16.3,212.7,16.1,212.4,16.3z"/>
 <path class="st0" d="M236.2,30.7l-20.7,12c-0.3,0.2-0.3,0.7,0,0.9l20.7,12c0.3,0.2,0.8,0,0.8-0.4V31.1	C236.9,30.7,236.5,30.5,236.2,30.7z"/>
 <path class="st0" d="M215.5,41.1l20.7-12c0.3-0.2,0.3-0.7,0-0.9l-20.7-12c-0.3-0.2-0.8,0-0.8,0.4v23.9	C214.7,41,215.1,41.3,215.5,41.1z"/>
 <path class="st0" d="M215.5,69.9l20.7-12c0.3-0.2,0.3-0.7,0-0.9l-20.7-12c-0.3-0.2-0.8,0-0.8,0.4v23.9	C214.7,69.8,215.1,70.1,215.5,69.9z"/>
 <path class="st4" d="M236.2,2l-20.7,12c-0.3,0.2-0.3,0.7,0,0.9l20.7,12c0.3,0.2,0.8,0,0.8-0.4V2.5C236.9,2.1,236.5,1.8,236.2,2z"/>
 <path class="st0" d="M191.7,26.8l20.7-12c0.3-0.2,0.3-0.7,0-0.9L191.7,2c-0.3-0.2-0.8,0-0.8,0.4v23.9	C190.9,26.8,191.4,27,191.7,26.8z"/>
 <path class="st4" d="M236.2,145.4l-20.7,12c-0.3,0.2-0.3,0.7,0,0.9l20.7,12c0.3,0.2,0.8,0,0.8-0.4v-23.9	C236.9,145.5,236.5,145.3,236.2,145.4z"/>
 <path class="st4" d="M191.7,170.2l20.7-12c0.3-0.2,0.3-0.7,0-0.9l-20.7-12c-0.3-0.2-0.8,0-0.8,0.4v23.9	C190.9,170.2,191.4,170.4,191.7,170.2z"/>
 <path class="st0" d="M191.7,141.6l20.7-12c0.3-0.2,0.3-0.7,0-0.9l-20.7-12c-0.3-0.2-0.8,0-0.8,0.4v23.9	C190.9,141.5,191.4,141.8,191.7,141.6z"/>
 <path class="st0" d="M212.4,131.2l-20.7,12c-0.3,0.2-0.3,0.7,0,0.9l20.7,12c0.3,0.2,0.8,0,0.8-0.4v-23.9	C213.2,131.2,212.7,131,212.4,131.2z"/>
 <path class="st0" d="M212.4,102.4l-20.7,12c-0.3,0.2-0.3,0.7,0,0.9l20.7,12c0.3,0.2,0.8,0,0.8-0.4v-23.9	C213.2,102.4,212.7,102.2,212.4,102.4z"/>
 <path class="st0" d="M236.2,116.8l-20.7,12c-0.3,0.2-0.3,0.7,0,0.9l20.7,12c0.3,0.2,0.8,0,0.8-0.4v-23.9	C236.9,116.8,236.5,116.6,236.2,116.8z"/>
 <path class="st3" d="M215.5,127.2l20.7-12c0.3-0.2,0.3-0.7,0-0.9l-20.7-12c-0.3-0.2-0.8,0-0.8,0.4v23.9	C214.7,127.1,215.1,127.4,215.5,127.2z"/>
 <path class="st8" d="M215.5,156l20.7-12c0.3-0.2,0.3-0.7,0-0.9l-20.7-12c-0.3-0.2-0.8,0-0.8,0.4v23.9	C214.7,155.9,215.1,156.2,215.5,156z"/>
 <path class="st0" d="M215.5,98.5l20.7-12c0.3-0.2,0.3-0.7,0-0.9l-20.7-12c-0.3-0.2-0.8,0-0.8,0.4v23.9	C214.7,98.5,215.1,98.7,215.5,98.5z"/>
 <path class="st0" d="M236.2,88.1l-20.7,12c-0.3,0.2-0.3,0.7,0,0.9l20.7,12c0.3,0.2,0.8,0,0.8-0.4V88.6	C236.9,88.2,236.5,87.9,236.2,88.1z"/>
 <path class="st3" d="M212.4,73.7l-20.7,12c-0.3,0.2-0.3,0.7,0,0.9l20.7,12c0.3,0.2,0.8,0,0.8-0.4V74.2	C213.2,73.8,212.7,73.5,212.4,73.7z"/>
 <path class="st0" d="M191.7,112.9l20.7-12c0.3-0.2,0.3-0.7,0-0.9l-20.7-12c-0.3-0.2-0.8,0-0.8,0.4v23.9	C190.9,112.9,191.4,113.1,191.7,112.9z"/>
 <path class="st4" d="M236.2,231.5l-20.7,12c-0.3,0.2-0.3,0.7,0,0.9l20.7,12c0.3,0.2,0.8,0,0.8-0.4V232	C236.9,231.6,236.5,231.4,236.2,231.5z"/>
 <path class="st1" d="M191.7,256.3l20.7-12c0.3-0.2,0.3-0.7,0-0.9l-20.7-12c-0.3-0.2-0.8,0-0.8,0.4v23.9	C190.9,256.3,191.4,256.5,191.7,256.3z"/>
 <path class="st5" d="M191.7,227.7l20.7-12c0.3-0.2,0.3-0.7,0-0.9l-20.7-12c-0.3-0.2-0.8,0-0.8,0.4v23.9	C190.9,227.6,191.4,227.9,191.7,227.7z"/>
 <path class="st0" d="M212.4,217.3l-20.7,12c-0.3,0.2-0.3,0.7,0,0.9l20.7,12c0.3,0.2,0.8,0,0.8-0.4v-23.9	C213.2,217.3,212.7,217.1,212.4,217.3z"/>
 <path class="st0" d="M212.4,188.5l-20.7,12c-0.3,0.2-0.3,0.7,0,0.9l20.7,12c0.3,0.2,0.8,0,0.8-0.4v-23.9	C213.2,188.5,212.7,188.3,212.4,188.5z"/>
 <path class="st2" d="M236.2,202.9l-20.7,12c-0.3,0.2-0.3,0.7,0,0.9l20.7,12c0.3,0.2,0.8,0,0.8-0.4v-23.9	C236.9,202.9,236.5,202.7,236.2,202.9z"/>
 <path class="st5" d="M215.5,213.3l20.7-12c0.3-0.2,0.3-0.7,0-0.9l-20.7-12c-0.3-0.2-0.8,0-0.8,0.4v23.9	C214.7,213.2,215.1,213.5,215.5,213.3z"/>
 <path class="st5" d="M215.5,242.1l20.7-12c0.3-0.2,0.3-0.7,0-0.9l-20.7-12c-0.3-0.2-0.8,0-0.8,0.4v23.9	C214.7,242,215.1,242.3,215.5,242.1z"/>
 <path class="st0" d="M215.5,184.6l20.7-12c0.3-0.2,0.3-0.7,0-0.9l-20.7-12c-0.3-0.2-0.8,0-0.8,0.4v23.9	C214.7,184.6,215.1,184.8,215.5,184.6z"/>
 <path class="st2" d="M236.2,174.2l-20.7,12c-0.3,0.2-0.3,0.7,0,0.9l20.7,12c0.3,0.2,0.8,0,0.8-0.4v-23.9	C236.9,174.3,236.5,174,236.2,174.2z"/>
 <path class="st0" d="M212.4,159.8l-20.7,12c-0.3,0.2-0.3,0.7,0,0.9l20.7,12c0.3,0.2,0.8,0,0.8-0.4v-23.9	C213.2,159.9,212.7,159.6,212.4,159.8z"/>
 <path class="st0" d="M191.7,199l20.7-12c0.3-0.2,0.3-0.7,0-0.9l-20.7-12c-0.3-0.2-0.8,0-0.8,0.4v23.9	C190.9,199,191.4,199.2,191.7,199z"/>
 <path class="st0" d="M236.2,317.6l-20.7,12c-0.3,0.2-0.3,0.7,0,0.9l20.7,12c0.3,0.2,0.8,0,0.8-0.4v-23.9	C236.9,317.7,236.5,317.5,236.2,317.6z"/>
 <path class="st0" d="M212.4,330.5c0.3-0.2,0.3-0.7,0-0.9l-20.7-12c-0.3-0.2-0.8,0-0.8,0.4V342c0,0.4,0.4,0.6,0.8,0.4L212.4,330.5z"/>
 <path class="st3" d="M191.7,313.8l20.7-12c0.3-0.2,0.3-0.7,0-0.9l-20.7-12c-0.3-0.2-0.8,0-0.8,0.4v23.9	C190.9,313.7,191.4,314,191.7,313.8z"/>
 <path class="st2" d="M212.4,303.4l-20.7,12c-0.3,0.2-0.3,0.7,0,0.9l20.7,12c0.3,0.2,0.8,0,0.8-0.4v-23.9	C213.2,303.4,212.7,303.2,212.4,303.4z"/>
 <path class="st0" d="M212.4,274.6l-20.7,12c-0.3,0.2-0.3,0.7,0,0.9l20.7,12c0.3,0.2,0.8,0,0.8-0.4V275	C213.2,274.6,212.7,274.4,212.4,274.6z"/>
 <path class="st0" d="M236.2,289l-20.7,12c-0.3,0.2-0.3,0.7,0,0.9l20.7,12c0.3,0.2,0.8,0,0.8-0.4v-23.9	C236.9,289,236.5,288.8,236.2,289z"/>
 <path class="st2" d="M215.5,299.4l20.7-12c0.3-0.2,0.3-0.7,0-0.9l-20.7-12c-0.3-0.2-0.8,0-0.8,0.4v23.9	C214.7,299.3,215.1,299.6,215.5,299.4z"/>
 <path class="st2" d="M215.5,328.2l20.7-12c0.3-0.2,0.3-0.7,0-0.9l-20.7-12c-0.3-0.2-0.8,0-0.8,0.4v23.9	C214.7,328.1,215.1,328.4,215.5,328.2z"/>
 <path class="st0" d="M215.5,270.7l20.7-12c0.3-0.2,0.3-0.7,0-0.9l-20.7-12c-0.3-0.2-0.8,0-0.8,0.4v23.9	C214.7,270.7,215.1,270.9,215.5,270.7z"/>
 <path class="st2" d="M236.2,260.3l-20.7,12c-0.3,0.2-0.3,0.7,0,0.9l20.7,12c0.3,0.2,0.8,0,0.8-0.4v-23.9	C236.9,260.4,236.5,260.1,236.2,260.3z"/>
 <path class="st4" d="M212.4,245.9l-20.7,12c-0.3,0.2-0.3,0.7,0,0.9l20.7,12c0.3,0.2,0.8,0,0.8-0.4v-23.9	C213.2,246,212.7,245.7,212.4,245.9z"/>
 <path class="st3" d="M191.7,285.1l20.7-12c0.3-0.2,0.3-0.7,0-0.9l-20.7-12c-0.3-0.2-0.8,0-0.8,0.4v23.9	C190.9,285.1,191.4,285.3,191.7,285.1z"/>
 <path class="st2" d="M188.6,59.3l-20.7,12c-0.3,0.2-0.3,0.7,0,0.9l20.7,12c0.3,0.2,0.8,0,0.8-0.4V59.8	C189.4,59.4,189,59.2,188.6,59.3z"/>
 <path class="st2" d="M144.1,84.1l20.7-12c0.3-0.2,0.3-0.7,0-0.9l-20.7-12c-0.3-0.2-0.8,0-0.8,0.4v23.9	C143.4,84.1,143.8,84.3,144.1,84.1z"/>
 <path class="st1" d="M144.1,55.5l20.7-12c0.3-0.2,0.3-0.7,0-0.9l-20.7-12c-0.3-0.2-0.8,0-0.8,0.4V55	C143.4,55.4,143.8,55.7,144.1,55.5z"/>
 <path class="st1" d="M164.9,45.1l-20.7,12c-0.3,0.2-0.3,0.7,0,0.9l20.7,12c0.3,0.2,0.8,0,0.8-0.4V45.5	C165.6,45.1,165.2,44.9,164.9,45.1z"/>
 <path class="st1" d="M164.9,16.3l-20.7,12c-0.3,0.2-0.3,0.7,0,0.9l20.7,12c0.3,0.2,0.8,0,0.8-0.4V16.7	C165.6,16.3,165.2,16.1,164.9,16.3z"/>
 <path class="st0" d="M188.6,30.7l-20.7,12c-0.3,0.2-0.3,0.7,0,0.9l20.7,12c0.3,0.2,0.8,0,0.8-0.4V31.1	C189.4,30.7,189,30.5,188.6,30.7z"/>
 <path class="st4" d="M167.9,41.1l20.7-12c0.3-0.2,0.3-0.7,0-0.9l-20.7-12c-0.3-0.2-0.8,0-0.8,0.4v23.9	C167.2,41,167.6,41.3,167.9,41.1z"/>
 <path class="st0" d="M167.9,69.9l20.7-12c0.3-0.2,0.3-0.7,0-0.9l-20.7-12c-0.3-0.2-0.8,0-0.8,0.4v23.9	C167.2,69.8,167.6,70.1,167.9,69.9z"/>
 <path class="st1" d="M188.6,2l-20.7,12c-0.3,0.2-0.3,0.7,0,0.9l20.7,12c0.3,0.2,0.8,0,0.8-0.4V2.5C189.4,2.1,189,1.8,188.6,2z"/>
 <path class="st2" d="M144.1,26.8l20.7-12c0.3-0.2,0.3-0.7,0-0.9L144.1,2c-0.3-0.2-0.8,0-0.8,0.4v23.9	C143.4,26.8,143.8,27,144.1,26.8z"/>
 <path class="st0" d="M188.6,145.4l-20.7,12c-0.3,0.2-0.3,0.7,0,0.9l20.7,12c0.3,0.2,0.8,0,0.8-0.4v-23.9	C189.4,145.5,189,145.3,188.6,145.4z"/>
 <path class="st4" d="M144.1,170.2l20.7-12c0.3-0.2,0.3-0.7,0-0.9l-20.7-12c-0.3-0.2-0.8,0-0.8,0.4v23.9	C143.4,170.2,143.8,170.4,144.1,170.2z"/>
 <path class="st6" d="M144.1,141.6l20.7-12c0.3-0.2,0.3-0.7,0-0.9l-20.7-12c-0.3-0.2-0.8,0-0.8,0.4v23.9	C143.4,141.5,143.8,141.8,144.1,141.6z"/>
 <path class="st3" d="M164.9,131.2l-20.7,12c-0.3,0.2-0.3,0.7,0,0.9l20.7,12c0.3,0.2,0.8,0,0.8-0.4v-23.9	C165.6,131.2,165.2,131,164.9,131.2z"/>
 <path class="st0" d="M164.9,102.4l-20.7,12c-0.3,0.2-0.3,0.7,0,0.9l20.7,12c0.3,0.2,0.8,0,0.8-0.4v-23.9	C165.6,102.4,165.2,102.2,164.9,102.4z"/>
 <path class="st4" d="M188.6,116.8l-20.7,12c-0.3,0.2-0.3,0.7,0,0.9l20.7,12c0.3,0.2,0.8,0,0.8-0.4v-23.9	C189.4,116.8,189,116.6,188.6,116.8z"/>
 <path class="st0" d="M167.9,127.2l20.7-12c0.3-0.2,0.3-0.7,0-0.9l-20.7-12c-0.3-0.2-0.8,0-0.8,0.4v23.9	C167.2,127.1,167.6,127.4,167.9,127.2z"/>
 <path class="st2" d="M167.9,156l20.7-12c0.3-0.2,0.3-0.7,0-0.9l-20.7-12c-0.3-0.2-0.8,0-0.8,0.4v23.9	C167.2,155.9,167.6,156.2,167.9,156z"/>
 <path class="st0" d="M167.9,98.5l20.7-12c0.3-0.2,0.3-0.7,0-0.9l-20.7-12c-0.3-0.2-0.8,0-0.8,0.4v23.9	C167.2,98.5,167.6,98.7,167.9,98.5z"/>
 <path class="st3" d="M188.6,88.1l-20.7,12c-0.3,0.2-0.3,0.7,0,0.9l20.7,12c0.3,0.2,0.8,0,0.8-0.4V88.6	C189.4,88.2,189,87.9,188.6,88.1z"/>
 <path class="st8" d="M164.9,73.7l-20.7,12c-0.3,0.2-0.3,0.7,0,0.9l20.7,12c0.3,0.2,0.8,0,0.8-0.4V74.2	C165.6,73.8,165.2,73.5,164.9,73.7z"/>
 <path class="st4" d="M144.1,112.9l20.7-12c0.3-0.2,0.3-0.7,0-0.9l-20.7-12c-0.3-0.2-0.8,0-0.8,0.4v23.9	C143.4,112.9,143.8,113.1,144.1,112.9z"/>
 <path class="st4" d="M188.6,231.5l-20.7,12c-0.3,0.2-0.3,0.7,0,0.9l20.7,12c0.3,0.2,0.8,0,0.8-0.4V232	C189.4,231.6,189,231.4,188.6,231.5z"/>
 <path class="st0" d="M144.1,256.3l20.7-12c0.3-0.2,0.3-0.7,0-0.9l-20.7-12c-0.3-0.2-0.8,0-0.8,0.4v23.9	C143.4,256.3,143.8,256.5,144.1,256.3z"/>
 <path class="st0" d="M144.1,227.7l20.7-12c0.3-0.2,0.3-0.7,0-0.9l-20.7-12c-0.3-0.2-0.8,0-0.8,0.4v23.9	C143.4,227.6,143.8,227.9,144.1,227.7z"/>
 <path class="st2" d="M164.9,217.3l-20.7,12c-0.3,0.2-0.3,0.7,0,0.9l20.7,12c0.3,0.2,0.8,0,0.8-0.4v-23.9	C165.6,217.3,165.2,217.1,164.9,217.3z"/>
 <path class="st4" d="M164.9,188.5l-20.7,12c-0.3,0.2-0.3,0.7,0,0.9l20.7,12c0.3,0.2,0.8,0,0.8-0.4v-23.9	C165.6,188.5,165.2,188.3,164.9,188.5z"/>
 <path class="st2" d="M188.6,202.9l-20.7,12c-0.3,0.2-0.3,0.7,0,0.9l20.7,12c0.3,0.2,0.8,0,0.8-0.4v-23.9	C189.4,202.9,189,202.7,188.6,202.9z"/>
 <path class="st2" d="M167.9,213.3l20.7-12c0.3-0.2,0.3-0.7,0-0.9l-20.7-12c-0.3-0.2-0.8,0-0.8,0.4v23.9	C167.2,213.2,167.6,213.5,167.9,213.3z"/>
 <path class="st0" d="M167.9,242.1l20.7-12c0.3-0.2,0.3-0.7,0-0.9l-20.7-12c-0.3-0.2-0.8,0-0.8,0.4v23.9	C167.2,242,167.6,242.3,167.9,242.1z"/>
 <path class="st0" d="M167.9,184.6l20.7-12c0.3-0.2,0.3-0.7,0-0.9l-20.7-12c-0.3-0.2-0.8,0-0.8,0.4v23.9	C167.2,184.6,167.6,184.8,167.9,184.6z"/>
 <path class="st4" d="M188.6,174.2l-20.7,12c-0.3,0.2-0.3,0.7,0,0.9l20.7,12c0.3,0.2,0.8,0,0.8-0.4v-23.9	C189.4,174.3,189,174,188.6,174.2z"/>
 <path class="st4" d="M164.9,159.8l-20.7,12c-0.3,0.2-0.3,0.7,0,0.9l20.7,12c0.3,0.2,0.8,0,0.8-0.4v-23.9	C165.6,159.9,165.2,159.6,164.9,159.8z"/>
 <path class="st0" d="M144.1,199l20.7-12c0.3-0.2,0.3-0.7,0-0.9l-20.7-12c-0.3-0.2-0.8,0-0.8,0.4v23.9	C143.4,199,143.8,199.2,144.1,199z"/>
 <path class="st3" d="M188.6,317.6l-20.7,12c-0.3,0.2-0.3,0.7,0,0.9l20.7,12c0.3,0.2,0.8,0,0.8-0.4v-23.9	C189.4,317.7,189,317.5,188.6,317.6z"/>
 <path class="st3" d="M164.9,330.5c0.3-0.2,0.3-0.7,0-0.9l-20.7-12c-0.3-0.2-0.8,0-0.8,0.4V342c0,0.4,0.4,0.6,0.8,0.4L164.9,330.5z"/>
 <path class="st0" d="M144.1,313.8l20.7-12c0.3-0.2,0.3-0.7,0-0.9l-20.7-12c-0.3-0.2-0.8,0-0.8,0.4v23.9	C143.4,313.7,143.8,314,144.1,313.8z"/>
 <path class="st2" d="M164.9,303.4l-20.7,12c-0.3,0.2-0.3,0.7,0,0.9l20.7,12c0.3,0.2,0.8,0,0.8-0.4v-23.9	C165.6,303.4,165.2,303.2,164.9,303.4z"/>
 <path class="st4" d="M164.9,274.6l-20.7,12c-0.3,0.2-0.3,0.7,0,0.9l20.7,12c0.3,0.2,0.8,0,0.8-0.4V275	C165.6,274.6,165.2,274.4,164.9,274.6z"/>
 <path class="st3" d="M188.6,289l-20.7,12c-0.3,0.2-0.3,0.7,0,0.9l20.7,12c0.3,0.2,0.8,0,0.8-0.4v-23.9	C189.4,289,189,288.8,188.6,289z"/>
 <path class="st6" d="M167.9,299.4l20.7-12c0.3-0.2,0.3-0.7,0-0.9l-20.7-12c-0.3-0.2-0.8,0-0.8,0.4v23.9	C167.2,299.3,167.6,299.6,167.9,299.4z"/>
 <path class="st0" d="M167.9,328.2l20.7-12c0.3-0.2,0.3-0.7,0-0.9l-20.7-12c-0.3-0.2-0.8,0-0.8,0.4v23.9	C167.2,328.1,167.6,328.4,167.9,328.2z"/>
 <path class="st2" d="M167.9,270.7l20.7-12c0.3-0.2,0.3-0.7,0-0.9l-20.7-12c-0.3-0.2-0.8,0-0.8,0.4v23.9	C167.2,270.7,167.6,270.9,167.9,270.7z"/>
 <path class="st0" d="M188.6,260.3l-20.7,12c-0.3,0.2-0.3,0.7,0,0.9l20.7,12c0.3,0.2,0.8,0,0.8-0.4v-23.9	C189.4,260.4,189,260.1,188.6,260.3z"/>
 <path class="st2" d="M164.9,245.9l-20.7,12c-0.3,0.2-0.3,0.7,0,0.9l20.7,12c0.3,0.2,0.8,0,0.8-0.4v-23.9	C165.6,246,165.2,245.7,164.9,245.9z"/>
 <path class="st3" d="M144.1,285.1l20.7-12c0.3-0.2,0.3-0.7,0-0.9l-20.7-12c-0.3-0.2-0.8,0-0.8,0.4v23.9	C143.4,285.1,143.8,285.3,144.1,285.1z"/>
 <path class="st2" d="M141.1,59.3l-20.7,12c-0.3,0.2-0.3,0.7,0,0.9l20.7,12c0.3,0.2,0.8,0,0.8-0.4V59.8	C141.8,59.4,141.4,59.2,141.1,59.3z"/>
 <path class="st0" d="M117.3,72.2c0.3-0.2,0.3-0.7,0-0.9l-20.7-12c-0.3-0.2-0.8,0-0.8,0.4v23.9c0,0.4,0.4,0.6,0.8,0.4L117.3,72.2z"/>
 <path class="st4" d="M96.6,55.5l20.7-12c0.3-0.2,0.3-0.7,0-0.9l-20.7-12c-0.3-0.2-0.8,0-0.8,0.4V55C95.9,55.4,96.3,55.7,96.6,55.5z"/>
 <path class="st5" d="M117.3,45.1L96.6,57c-0.3,0.2-0.3,0.7,0,0.9l20.7,12c0.3,0.2,0.8,0,0.8-0.4V45.5	C118.1,45.1,117.7,44.9,117.3,45.1z"/>
 <path class="st0" d="M117.3,16.3l-20.7,12c-0.3,0.2-0.3,0.7,0,0.9l20.7,12c0.3,0.2,0.8,0,0.8-0.4V16.7	C118.1,16.3,117.7,16.1,117.3,16.3z"/>
 <path class="st0" d="M141.1,30.7l-20.7,12c-0.3,0.2-0.3,0.7,0,0.9l20.7,12c0.3,0.2,0.8,0,0.8-0.4V31.1	C141.8,30.7,141.4,30.5,141.1,30.7z"/>
 <path class="st3" d="M141.1,29.1c0.3-0.2,0.3-0.7,0-0.9l-20.7-12c-0.3-0.2-0.8,0-0.8,0.4v23.9c0,0.4,0.4,0.6,0.8,0.4L141.1,29.1z"/>
 <path class="st0" d="M119.6,45.5v23.9c0,0.4,0.4,0.6,0.8,0.4l20.7-12c0.3-0.2,0.3-0.7,0-0.9l-20.7-12	C120,44.9,119.6,45.1,119.6,45.5z"/>
 <path class="st0" d="M141.1,2l-20.7,12c-0.3,0.2-0.3,0.7,0,0.9l20.7,12c0.3,0.2,0.8,0,0.8-0.4V2.5C141.8,2.1,141.4,1.8,141.1,2z"/>
 <path class="st6" d="M95.9,2.5v23.9c0,0.4,0.4,0.6,0.8,0.4l20.7-12c0.3-0.2,0.3-0.7,0-0.9L96.6,2C96.3,1.8,95.9,2.1,95.9,2.5z"/>
 <path class="st0" d="M141.1,145.4l-20.7,12c-0.3,0.2-0.3,0.7,0,0.9l20.7,12c0.3,0.2,0.8,0,0.8-0.4v-23.9	C141.8,145.5,141.4,145.3,141.1,145.4z"/>
 <path class="st4" d="M117.3,158.3c0.3-0.2,0.3-0.7,0-0.9l-20.7-12c-0.3-0.2-0.8,0-0.8,0.4v23.9c0,0.4,0.4,0.6,0.8,0.4L117.3,158.3z"/>
 <path class="st3" d="M96.6,141.6l20.7-12c0.3-0.2,0.3-0.7,0-0.9l-20.7-12c-0.3-0.2-0.8,0-0.8,0.4v23.9	C95.9,141.5,96.3,141.8,96.6,141.6z"/>
 <path class="st0" d="M117.3,131.2l-20.7,12c-0.3,0.2-0.3,0.7,0,0.9l20.7,12c0.3,0.2,0.8,0,0.8-0.4v-23.9	C118.1,131.2,117.7,131,117.3,131.2z"/>
 <path class="st0" d="M117.3,102.4l-20.7,12c-0.3,0.2-0.3,0.7,0,0.9l20.7,12c0.3,0.2,0.8,0,0.8-0.4v-23.9	C118.1,102.4,117.7,102.2,117.3,102.4z"/>
 <path class="st2" d="M141.1,116.8l-20.7,12c-0.3,0.2-0.3,0.7,0,0.9l20.7,12c0.3,0.2,0.8,0,0.8-0.4v-23.9	C141.8,116.8,141.4,116.6,141.1,116.8z"/>
 <path class="st0" d="M141.1,115.2c0.3-0.2,0.3-0.7,0-0.9l-20.7-12c-0.3-0.2-0.8,0-0.8,0.4v23.9c0,0.4,0.4,0.6,0.8,0.4L141.1,115.2z"/>
 <path class="st3" d="M119.6,131.6v23.9c0,0.4,0.4,0.6,0.8,0.4l20.7-12c0.3-0.2,0.3-0.7,0-0.9l-20.7-12	C120,131,119.6,131.2,119.6,131.6z"/>
 <path class="st0" d="M120.4,98.5l20.7-12c0.3-0.2,0.3-0.7,0-0.9l-20.7-12c-0.3-0.2-0.8,0-0.8,0.4v23.9	C119.6,98.5,120,98.7,120.4,98.5z"/>
 <path class="st4" d="M141.1,88.1l-20.7,12c-0.3,0.2-0.3,0.7,0,0.9l20.7,12c0.3,0.2,0.8,0,0.8-0.4V88.6	C141.8,88.2,141.4,87.9,141.1,88.1z"/>
 <path class="st3" d="M117.3,73.7l-20.7,12c-0.3,0.2-0.3,0.7,0,0.9l20.7,12c0.3,0.2,0.8,0,0.8-0.4V74.2	C118.1,73.8,117.7,73.5,117.3,73.7z"/>
 <path class="st0" d="M95.9,88.6v23.9c0,0.4,0.4,0.6,0.8,0.4l20.7-12c0.3-0.2,0.3-0.7,0-0.9l-20.7-12C96.3,87.9,95.9,88.2,95.9,88.6z"/>
 <path class="st2" d="M141.1,231.5l-20.7,12c-0.3,0.2-0.3,0.7,0,0.9l20.7,12c0.3,0.2,0.8,0,0.8-0.4V232	C141.8,231.6,141.4,231.4,141.1,231.5z"/>
 <path class="st0" d="M117.3,244.4c0.3-0.2,0.3-0.7,0-0.9l-20.7-12c-0.3-0.2-0.8,0-0.8,0.4v23.9c0,0.4,0.4,0.6,0.8,0.4L117.3,244.4z"/>
 <path class="st0" d="M96.6,227.7l20.7-12c0.3-0.2,0.3-0.7,0-0.9l-20.7-12c-0.3-0.2-0.8,0-0.8,0.4v23.9	C95.9,227.6,96.3,227.9,96.6,227.7z"/>
 <path class="st5" d="M117.3,217.3l-20.7,12c-0.3,0.2-0.3,0.7,0,0.9l20.7,12c0.3,0.2,0.8,0,0.8-0.4v-23.9	C118.1,217.3,117.7,217.1,117.3,217.3z"/>
 <path class="st4" d="M117.3,188.5l-20.7,12c-0.3,0.2-0.3,0.7,0,0.9l20.7,12c0.3,0.2,0.8,0,0.8-0.4v-23.9	C118.1,188.5,117.7,188.3,117.3,188.5z"/>
 <path class="st0" d="M141.1,202.9l-20.7,12c-0.3,0.2-0.3,0.7,0,0.9l20.7,12c0.3,0.2,0.8,0,0.8-0.4v-23.9	C141.8,202.9,141.4,202.7,141.1,202.9z"/>
 <path class="st0" d="M141.1,201.3c0.3-0.2,0.3-0.7,0-0.9l-20.7-12c-0.3-0.2-0.8,0-0.8,0.4v23.9c0,0.4,0.4,0.6,0.8,0.4L141.1,201.3z"/>
 <path class="st6" d="M119.6,217.7v23.9c0,0.4,0.4,0.6,0.8,0.4l20.7-12c0.3-0.2,0.3-0.7,0-0.9l-20.7-12	C120,217.1,119.6,217.3,119.6,217.7z"/>
 <path class="st5" d="M120.4,184.6l20.7-12c0.3-0.2,0.3-0.7,0-0.9l-20.7-12c-0.3-0.2-0.8,0-0.8,0.4v23.9	C119.6,184.6,120,184.8,120.4,184.6z"/>
 <path class="st5" d="M141.1,174.2l-20.7,12c-0.3,0.2-0.3,0.7,0,0.9l20.7,12c0.3,0.2,0.8,0,0.8-0.4v-23.9	C141.8,174.3,141.4,174,141.1,174.2z"/>
 <path class="st0" d="M117.3,159.8l-20.7,12c-0.3,0.2-0.3,0.7,0,0.9l20.7,12c0.3,0.2,0.8,0,0.8-0.4v-23.9	C118.1,159.9,117.7,159.6,117.3,159.8z"/>
 <path class="st1" d="M95.9,174.7v23.9c0,0.4,0.4,0.6,0.8,0.4l20.7-12c0.3-0.2,0.3-0.7,0-0.9l-20.7-12	C96.3,174,95.9,174.3,95.9,174.7z"/>
 <path class="st4" d="M141.1,317.6l-20.7,12c-0.3,0.2-0.3,0.7,0,0.9l20.7,12c0.3,0.2,0.8,0,0.8-0.4v-23.9	C141.8,317.7,141.4,317.5,141.1,317.6z"/>
 <path class="st0" d="M117.3,330.5c0.3-0.2,0.3-0.7,0-0.9l-20.7-12c-0.3-0.2-0.8,0-0.8,0.4V342c0,0.4,0.4,0.6,0.8,0.4L117.3,330.5z"	/>
 <path class="st7" d="M96.6,313.8l20.7-12c0.3-0.2,0.3-0.7,0-0.9l-20.7-12c-0.3-0.2-0.8,0-0.8,0.4v23.9	C95.9,313.7,96.3,314,96.6,313.8z"/>
 <path class="st2" d="M117.3,303.4l-20.7,12c-0.3,0.2-0.3,0.7,0,0.9l20.7,12c0.3,0.2,0.8,0,0.8-0.4v-23.9	C118.1,303.4,117.7,303.2,117.3,303.4z"/>
 <path class="st0" d="M117.3,274.6l-20.7,12c-0.3,0.2-0.3,0.7,0,0.9l20.7,12c0.3,0.2,0.8,0,0.8-0.4V275	C118.1,274.6,117.7,274.4,117.3,274.6z"/>
 <path class="st9" d="M141.1,289l-20.7,12c-0.3,0.2-0.3,0.7,0,0.9l20.7,12c0.3,0.2,0.8,0,0.8-0.4v-23.9	C141.8,289,141.4,288.8,141.1,289z"/>
 <path class="st2" d="M141.1,287.4c0.3-0.2,0.3-0.7,0-0.9l-20.7-12c-0.3-0.2-0.8,0-0.8,0.4v23.9c0,0.4,0.4,0.6,0.8,0.4L141.1,287.4z"	/>
 <path class="st0" d="M119.6,303.8v23.9c0,0.4,0.4,0.6,0.8,0.4l20.7-12c0.3-0.2,0.3-0.7,0-0.9l-20.7-12	C120,303.2,119.6,303.4,119.6,303.8z"/>
 <path class="st0" d="M120.4,270.7l20.7-12c0.3-0.2,0.3-0.7,0-0.9l-20.7-12c-0.3-0.2-0.8,0-0.8,0.4v23.9	C119.6,270.7,120,270.9,120.4,270.7z"/>
 <path class="st0" d="M141.1,260.3l-20.7,12c-0.3,0.2-0.3,0.7,0,0.9l20.7,12c0.3,0.2,0.8,0,0.8-0.4v-23.9	C141.8,260.4,141.4,260.1,141.1,260.3z"/>
 <path class="st3" d="M117.3,245.9l-20.7,12c-0.3,0.2-0.3,0.7,0,0.9l20.7,12c0.3,0.2,0.8,0,0.8-0.4v-23.9	C118.1,246,117.7,245.7,117.3,245.9z"/>
 <path class="st5" d="M95.9,260.8v23.9c0,0.4,0.4,0.6,0.8,0.4l20.7-12c0.3-0.2,0.3-0.7,0-0.9l-20.7-12	C96.3,260.1,95.9,260.4,95.9,260.8z"/>
 <path class="st0" d="M93.6,59.3l-20.7,12c-0.3,0.2-0.3,0.7,0,0.9l20.7,12c0.3,0.2,0.8,0,0.8-0.4V59.8C94.3,59.4,93.9,59.2,93.6,59.3	z"/>
 <path class="st1" d="M49.1,84.1l20.7-12c0.3-0.2,0.3-0.7,0-0.9l-20.7-12c-0.3-0.2-0.8,0-0.8,0.4v23.9C48.3,84.1,48.7,84.3,49.1,84.1	z"/>
 <path class="st5" d="M49.1,55.5l20.7-12c0.3-0.2,0.3-0.7,0-0.9l-20.7-12c-0.3-0.2-0.8,0-0.8,0.4V55C48.3,55.4,48.7,55.7,49.1,55.5z"/>
 <path class="st2" d="M69.8,45.1L49.1,57c-0.3,0.2-0.3,0.7,0,0.9l20.7,12c0.3,0.2,0.8,0,0.8-0.4V45.5C70.5,45.1,70.1,44.9,69.8,45.1z"/>
 <path class="st0" d="M70.5,16.7c0-0.4-0.4-0.6-0.8-0.4l-20.7,12c-0.3,0.2-0.3,0.7,0,0.9l20.7,12c0.3,0.2,0.8,0,0.8-0.4V16.7z"/>
 <path class="st0" d="M93.6,30.7l-20.7,12c-0.3,0.2-0.3,0.7,0,0.9l20.7,12c0.3,0.2,0.8,0,0.8-0.4V31.1C94.3,30.7,93.9,30.5,93.6,30.7z"/>
 <path class="st4" d="M93.6,29.1c0.3-0.2,0.3-0.7,0-0.9l-20.7-12c-0.3-0.2-0.8,0-0.8,0.4v23.9c0,0.4,0.4,0.6,0.8,0.4L93.6,29.1z"/>
 <path class="st5" d="M72.1,45.5v23.9c0,0.4,0.4,0.6,0.8,0.4l20.7-12c0.3-0.2,0.3-0.7,0-0.9l-20.7-12C72.5,44.9,72.1,45.1,72.1,45.5z"/>
 <path class="st7" d="M93.6,2L72.8,14c-0.3,0.2-0.3,0.7,0,0.9l20.7,12c0.3,0.2,0.8,0,0.8-0.4V2.5C94.3,2.1,93.9,1.8,93.6,2z"/>
 <path class="st4" d="M49.1,26.8l20.7-12c0.3-0.2,0.3-0.7,0-0.9L49.1,2c-0.3-0.2-0.8,0-0.8,0.4v23.9C48.3,26.8,48.7,27,49.1,26.8z"/>
 <path class="st0" d="M93.6,145.4l-20.7,12c-0.3,0.2-0.3,0.7,0,0.9l20.7,12c0.3,0.2,0.8,0,0.8-0.4v-23.9	C94.3,145.5,93.9,145.3,93.6,145.4z"/>
 <path class="st2" d="M49.1,170.2l20.7-12c0.3-0.2,0.3-0.7,0-0.9l-20.7-12c-0.3-0.2-0.8,0-0.8,0.4v23.9	C48.3,170.2,48.7,170.4,49.1,170.2z"/>
 <path class="st0" d="M49.1,141.6l20.7-12c0.3-0.2,0.3-0.7,0-0.9l-20.7-12c-0.3-0.2-0.8,0-0.8,0.4v23.9	C48.3,141.5,48.7,141.8,49.1,141.6z"/>
 <path class="st4" d="M69.8,131.2l-20.7,12c-0.3,0.2-0.3,0.7,0,0.9l20.7,12c0.3,0.2,0.8,0,0.8-0.4v-23.9	C70.5,131.2,70.1,131,69.8,131.2z"/>
 <path class="st5" d="M70.5,102.8c0-0.4-0.4-0.6-0.8-0.4l-20.7,12c-0.3,0.2-0.3,0.7,0,0.9l20.7,12c0.3,0.2,0.8,0,0.8-0.4V102.8z"/>
 <path class="st0" d="M93.6,116.8l-20.7,12c-0.3,0.2-0.3,0.7,0,0.9l20.7,12c0.3,0.2,0.8,0,0.8-0.4v-23.9	C94.3,116.8,93.9,116.6,93.6,116.8z"/>
 <path class="st0" d="M93.6,115.2c0.3-0.2,0.3-0.7,0-0.9l-20.7-12c-0.3-0.2-0.8,0-0.8,0.4v23.9c0,0.4,0.4,0.6,0.8,0.4L93.6,115.2z"/>
 <path class="st4" d="M72.1,131.6v23.9c0,0.4,0.4,0.6,0.8,0.4l20.7-12c0.3-0.2,0.3-0.7,0-0.9l-20.7-12	C72.5,131,72.1,131.2,72.1,131.6z"/>
 <path class="st0" d="M72.8,98.5l20.7-12c0.3-0.2,0.3-0.7,0-0.9l-20.7-12c-0.3-0.2-0.8,0-0.8,0.4v23.9C72.1,98.5,72.5,98.7,72.8,98.5z"/>
 <path class="st2" d="M93.6,88.1l-20.7,12c-0.3,0.2-0.3,0.7,0,0.9l20.7,12c0.3,0.2,0.8,0,0.8-0.4V88.6C94.3,88.2,93.9,87.9,93.6,88.1z"/>
 <path class="st6" d="M69.8,73.7l-20.7,12c-0.3,0.2-0.3,0.7,0,0.9l20.7,12c0.3,0.2,0.8,0,0.8-0.4V74.2C70.5,73.8,70.1,73.5,69.8,73.7z"/>
 <path class="st5" d="M49.1,112.9l20.7-12c0.3-0.2,0.3-0.7,0-0.9l-20.7-12c-0.3-0.2-0.8,0-0.8,0.4v23.9	C48.3,112.9,48.7,113.1,49.1,112.9z"/>
 <path class="st0" d="M93.6,231.5l-20.7,12c-0.3,0.2-0.3,0.7,0,0.9l20.7,12c0.3,0.2,0.8,0,0.8-0.4V232	C94.3,231.6,93.9,231.4,93.6,231.5z"/>
 <path class="st1" d="M49.1,256.3l20.7-12c0.3-0.2,0.3-0.7,0-0.9l-20.7-12c-0.3-0.2-0.8,0-0.8,0.4v23.9	C48.3,256.3,48.7,256.5,49.1,256.3z"/>
 <path class="st0" d="M49.1,227.7l20.7-12c0.3-0.2,0.3-0.7,0-0.9l-20.7-12c-0.3-0.2-0.8,0-0.8,0.4v23.9	C48.3,227.6,48.7,227.9,49.1,227.7z"/>
 <path class="st0" d="M69.8,217.3l-20.7,12c-0.3,0.2-0.3,0.7,0,0.9l20.7,12c0.3,0.2,0.8,0,0.8-0.4v-23.9	C70.5,217.3,70.1,217.1,69.8,217.3z"/>
 <path class="st8" d="M70.5,188.9c0-0.4-0.4-0.6-0.8-0.4l-20.7,12c-0.3,0.2-0.3,0.7,0,0.9l20.7,12c0.3,0.2,0.8,0,0.8-0.4V188.9z"/>
 <path class="st0" d="M93.6,202.9l-20.7,12c-0.3,0.2-0.3,0.7,0,0.9l20.7,12c0.3,0.2,0.8,0,0.8-0.4v-23.9	C94.3,202.9,93.9,202.7,93.6,202.9z"/>
 <path class="st0" d="M93.6,201.3c0.3-0.2,0.3-0.7,0-0.9l-20.7-12c-0.3-0.2-0.8,0-0.8,0.4v23.9c0,0.4,0.4,0.6,0.8,0.4L93.6,201.3z"/>
 <path class="st3" d="M72.1,217.7v23.9c0,0.4,0.4,0.6,0.8,0.4l20.7-12c0.3-0.2,0.3-0.7,0-0.9l-20.7-12	C72.5,217.1,72.1,217.3,72.1,217.7z"/>
 <path class="st3" d="M72.8,184.6l20.7-12c0.3-0.2,0.3-0.7,0-0.9l-20.7-12c-0.3-0.2-0.8,0-0.8,0.4v23.9	C72.1,184.6,72.5,184.8,72.8,184.6z"/>
 <path class="st4" d="M93.6,174.2l-20.7,12c-0.3,0.2-0.3,0.7,0,0.9l20.7,12c0.3,0.2,0.8,0,0.8-0.4v-23.9	C94.3,174.3,93.9,174,93.6,174.2z"/>
 <path class="st1" d="M69.8,159.8l-20.7,12c-0.3,0.2-0.3,0.7,0,0.9l20.7,12c0.3,0.2,0.8,0,0.8-0.4v-23.9	C70.5,159.9,70.1,159.6,69.8,159.8z"/>
 <path class="st0" d="M49.1,199l20.7-12c0.3-0.2,0.3-0.7,0-0.9l-20.7-12c-0.3-0.2-0.8,0-0.8,0.4v23.9C48.3,199,48.7,199.2,49.1,199z"/>
 <path class="st9" d="M93.6,317.6l-20.7,12c-0.3,0.2-0.3,0.7,0,0.9l20.7,12c0.3,0.2,0.8,0,0.8-0.4v-23.9	C94.3,317.7,93.9,317.5,93.6,317.6z"/>
 <path class="st2" d="M69.8,330.5c0.3-0.2,0.3-0.7,0-0.9l-20.7-12c-0.3-0.2-0.8,0-0.8,0.4V342c0,0.4,0.4,0.6,0.8,0.4L69.8,330.5z"/>
 <path class="st2" d="M49.1,313.8l20.7-12c0.3-0.2,0.3-0.7,0-0.9l-20.7-12c-0.3-0.2-0.8,0-0.8,0.4v23.9	C48.3,313.7,48.7,314,49.1,313.8z"/>
 <path class="st5" d="M69.8,303.4l-20.7,12c-0.3,0.2-0.3,0.7,0,0.9l20.7,12c0.3,0.2,0.8,0,0.8-0.4v-23.9	C70.5,303.4,70.1,303.2,69.8,303.4z"/>
 <path class="st0" d="M70.5,275c0-0.4-0.4-0.6-0.8-0.4l-20.7,12c-0.3,0.2-0.3,0.7,0,0.9l20.7,12c0.3,0.2,0.8,0,0.8-0.4V275z"/>
 <path class="st0" d="M93.6,289l-20.7,12c-0.3,0.2-0.3,0.7,0,0.9l20.7,12c0.3,0.2,0.8,0,0.8-0.4v-23.9C94.3,289,93.9,288.8,93.6,289z"/>
 <path class="st2" d="M93.6,287.4c0.3-0.2,0.3-0.7,0-0.9l-20.7-12c-0.3-0.2-0.8,0-0.8,0.4v23.9c0,0.4,0.4,0.6,0.8,0.4L93.6,287.4z"/>
 <path class="st0" d="M72.1,303.8v23.9c0,0.4,0.4,0.6,0.8,0.4l20.7-12c0.3-0.2,0.3-0.7,0-0.9l-20.7-12	C72.5,303.2,72.1,303.4,72.1,303.8z"/>
 <path class="st0" d="M72.8,270.7l20.7-12c0.3-0.2,0.3-0.7,0-0.9l-20.7-12c-0.3-0.2-0.8,0-0.8,0.4v23.9	C72.1,270.7,72.5,270.9,72.8,270.7z"/>
 <path class="st0" d="M93.6,260.3l-20.7,12c-0.3,0.2-0.3,0.7,0,0.9l20.7,12c0.3,0.2,0.8,0,0.8-0.4v-23.9	C94.3,260.4,93.9,260.1,93.6,260.3z"/>
 <path class="st4" d="M69.8,245.9l-20.7,12c-0.3,0.2-0.3,0.7,0,0.9l20.7,12c0.3,0.2,0.8,0,0.8-0.4v-23.9	C70.5,246,70.1,245.7,69.8,245.9z"/>
 <path class="st0" d="M49.1,285.1l20.7-12c0.3-0.2,0.3-0.7,0-0.9l-20.7-12c-0.3-0.2-0.8,0-0.8,0.4v23.9	C48.3,285.1,48.7,285.3,49.1,285.1z"/>
 <path class="st5" d="M46.8,59.8c0-0.4-0.4-0.6-0.8-0.4l-20.7,12c-0.3,0.2-0.3,0.7,0,0.9l20.7,12c0.3,0.2,0.8,0,0.8-0.4V59.8z"/>
 <path class="st0" d="M1.5,84.1l20.7-12c0.3-0.2,0.3-0.7,0-0.9l-20.7-12c-0.3-0.2-0.8,0-0.8,0.4v23.9C0.8,84.1,1.2,84.3,1.5,84.1z"/>
 <path class="st3" d="M1.5,55.5l20.7-12c0.3-0.2,0.3-0.7,0-0.9l-20.7-12c-0.3-0.2-0.8,0-0.8,0.4V55C0.8,55.4,1.2,55.7,1.5,55.5z"/>
 <path class="st5" d="M22.2,45.1L1.5,57c-0.3,0.2-0.3,0.7,0,0.9l20.7,12c0.3,0.2,0.8,0,0.8-0.4V45.5C23,45.1,22.6,44.9,22.2,45.1z"/>
 <path class="st0" d="M23,16.7c0-0.4-0.4-0.6-0.8-0.4l-20.7,12c-0.3,0.2-0.3,0.7,0,0.9l20.7,12c0.3,0.2,0.8,0,0.8-0.4V16.7z"/>
 <path class="st0" d="M46,30.7l-20.7,12c-0.3,0.2-0.3,0.7,0,0.9l20.7,12c0.3,0.2,0.8,0,0.8-0.4V31.1C46.8,30.7,46.3,30.5,46,30.7z"/>
 <path class="st3" d="M25.3,41.1l20.7-12c0.3-0.2,0.3-0.7,0-0.9l-20.7-12c-0.3-0.2-0.8,0-0.8,0.4v23.9C24.5,41,25,41.3,25.3,41.1z"/>
 <path class="st0" d="M25.3,69.9l20.7-12c0.3-0.2,0.3-0.7,0-0.9l-20.7-12c-0.3-0.2-0.8,0-0.8,0.4v23.9C24.5,69.8,25,70.1,25.3,69.9z"/>
 <path class="st3" d="M46,2L25.3,14c-0.3,0.2-0.3,0.7,0,0.9l20.7,12c0.3,0.2,0.8,0,0.8-0.4V2.5C46.8,2.1,46.3,1.8,46,2z"/>
 <path class="st2" d="M1.5,26.8l20.7-12c0.3-0.2,0.3-0.7,0-0.9L1.5,2c-0.3-0.2-0.8,0-0.8,0.4v23.9C0.8,26.8,1.2,27,1.5,26.8z"/>
 <path class="st0" d="M46.8,145.9c0-0.4-0.4-0.6-0.8-0.4l-20.7,12c-0.3,0.2-0.3,0.7,0,0.9l20.7,12c0.3,0.2,0.8,0,0.8-0.4V145.9z"/>
 <path class="st0" d="M1.5,170.2l20.7-12c0.3-0.2,0.3-0.7,0-0.9l-20.7-12c-0.3-0.2-0.8,0-0.8,0.4v23.9C0.8,170.2,1.2,170.4,1.5,170.2z"/>
 <path class="st3" d="M1.5,141.6l20.7-12c0.3-0.2,0.3-0.7,0-0.9l-20.7-12c-0.3-0.2-0.8,0-0.8,0.4v23.9C0.8,141.5,1.2,141.8,1.5,141.6z"/>
 <path class="st0" d="M22.2,131.2l-20.7,12c-0.3,0.2-0.3,0.7,0,0.9l20.7,12c0.3,0.2,0.8,0,0.8-0.4v-23.9	C23,131.2,22.6,131,22.2,131.2z"/>
 <path class="st2" d="M23,102.8c0-0.4-0.4-0.6-0.8-0.4l-20.7,12c-0.3,0.2-0.3,0.7,0,0.9l20.7,12c0.3,0.2,0.8,0,0.8-0.4V102.8z"/>
 <path class="st0" d="M46,116.8l-20.7,12c-0.3,0.2-0.3,0.7,0,0.9l20.7,12c0.3,0.2,0.8,0,0.8-0.4v-23.9	C46.8,116.8,46.3,116.6,46,116.8z"/>
 <path class="st2" d="M25.3,127.2l20.7-12c0.3-0.2,0.3-0.7,0-0.9l-20.7-12c-0.3-0.2-0.8,0-0.8,0.4v23.9	C24.5,127.1,25,127.4,25.3,127.2z"/>
 <path class="st3" d="M25.3,156L46,144c0.3-0.2,0.3-0.7,0-0.9l-20.7-12c-0.3-0.2-0.8,0-0.8,0.4v23.9C24.5,155.9,25,156.2,25.3,156z"/>
 <path class="st2" d="M25.3,98.5l20.7-12c0.3-0.2,0.3-0.7,0-0.9l-20.7-12c-0.3-0.2-0.8,0-0.8,0.4v23.9C24.5,98.5,25,98.7,25.3,98.5z"/>
 <path class="st5" d="M46,88.1l-20.7,12c-0.3,0.2-0.3,0.7,0,0.9l20.7,12c0.3,0.2,0.8,0,0.8-0.4V88.6C46.8,88.2,46.3,87.9,46,88.1z"/>
 <path class="st0" d="M22.2,73.7l-20.7,12c-0.3,0.2-0.3,0.7,0,0.9l20.7,12c0.3,0.2,0.8,0,0.8-0.4V74.2C23,73.8,22.6,73.5,22.2,73.7z"/>
 <path class="st0" d="M1.5,112.9l20.7-12c0.3-0.2,0.3-0.7,0-0.9l-20.7-12c-0.3-0.2-0.8,0-0.8,0.4v23.9C0.8,112.9,1.2,113.1,1.5,112.9z"/>
 <path class="st0" d="M46.8,232c0-0.4-0.4-0.6-0.8-0.4l-20.7,12c-0.3,0.2-0.3,0.7,0,0.9l20.7,12c0.3,0.2,0.8,0,0.8-0.4V232z"/>
 <path class="st0" d="M1.5,256.3l20.7-12c0.3-0.2,0.3-0.7,0-0.9l-20.7-12c-0.3-0.2-0.8,0-0.8,0.4v23.9C0.8,256.3,1.2,256.5,1.5,256.3z"/>
 <path class="st6" d="M1.5,227.7l20.7-12c0.3-0.2,0.3-0.7,0-0.9l-20.7-12c-0.3-0.2-0.8,0-0.8,0.4v23.9C0.8,227.6,1.2,227.9,1.5,227.7z"/>
 <path class="st0" d="M22.2,217.3l-20.7,12c-0.3,0.2-0.3,0.7,0,0.9l20.7,12c0.3,0.2,0.8,0,0.8-0.4v-23.9	C23,217.3,22.6,217.1,22.2,217.3z"/>
 <path class="st0" d="M23,188.9c0-0.4-0.4-0.6-0.8-0.4l-20.7,12c-0.3,0.2-0.3,0.7,0,0.9l20.7,12c0.3,0.2,0.8,0,0.8-0.4V188.9z"/>
 <path class="st0" d="M46,202.9l-20.7,12c-0.3,0.2-0.3,0.7,0,0.9l20.7,12c0.3,0.2,0.8,0,0.8-0.4v-23.9	C46.8,202.9,46.3,202.7,46,202.9z"/>
 <path class="st1" d="M25.3,213.3l20.7-12c0.3-0.2,0.3-0.7,0-0.9l-20.7-12c-0.3-0.2-0.8,0-0.8,0.4v23.9	C24.5,213.2,25,213.5,25.3,213.3z"/>
 <path class="st3" d="M25.3,242.1l20.7-12c0.3-0.2,0.3-0.7,0-0.9l-20.7-12c-0.3-0.2-0.8,0-0.8,0.4v23.9C24.5,242,25,242.3,25.3,242.1z"/>
 <path class="st6" d="M25.3,184.6l20.7-12c0.3-0.2,0.3-0.7,0-0.9l-20.7-12c-0.3-0.2-0.8,0-0.8,0.4v23.9	C24.5,184.6,25,184.8,25.3,184.6z"/>
 <path class="st2" d="M46,174.2l-20.7,12c-0.3,0.2-0.3,0.7,0,0.9L46,199c0.3,0.2,0.8,0,0.8-0.4v-23.9C46.8,174.3,46.3,174,46,174.2z"/>
 <path class="st2" d="M22.2,159.8l-20.7,12c-0.3,0.2-0.3,0.7,0,0.9l20.7,12c0.3,0.2,0.8,0,0.8-0.4v-23.9	C23,159.9,22.6,159.6,22.2,159.8z"/>
 <path class="st0" d="M1.5,199l20.7-12c0.3-0.2,0.3-0.7,0-0.9l-20.7-12c-0.3-0.2-0.8,0-0.8,0.4v23.9C0.8,199,1.2,199.2,1.5,199z"/>
 <path class="st2" d="M46,317.6l-20.7,12c-0.3,0.2-0.3,0.7,0,0.9l20.7,12c0.3,0.2,0.8,0,0.8-0.4v-23.9	C46.8,317.7,46.3,317.5,46,317.6z"/>
 <path class="st5" d="M22.2,330.5c0.3-0.2,0.3-0.7,0-0.9l-20.7-12c-0.3-0.2-0.8,0-0.8,0.4V342c0,0.4,0.4,0.6,0.8,0.4L22.2,330.5z"/>
 <path class="st6" d="M1.5,313.8l20.7-12c0.3-0.2,0.3-0.7,0-0.9L1.5,289c-0.3-0.2-0.8,0-0.8,0.4v23.9C0.8,313.7,1.2,314,1.5,313.8z"/>
 <path class="st0" d="M22.2,303.4l-20.7,12c-0.3,0.2-0.3,0.7,0,0.9l20.7,12c0.3,0.2,0.8,0,0.8-0.4v-23.9 C23,303.4,22.6,303.2,22.2,303.4z"/>
 <path class="st3" d="M23,275c0-0.4-0.4-0.6-0.8-0.4l-20.7,12c-0.3,0.2-0.3,0.7,0,0.9l20.7,12c0.3,0.2,0.8,0,0.8-0.4V275z"/>
 <path class="st0" d="M46,289l-20.7,12c-0.3,0.2-0.3,0.7,0,0.9l20.7,12c0.3,0.2,0.8,0,0.8-0.4v-23.9C46.8,289,46.3,288.8,46,289z"/>
 <path class="st0" d="M25.3,299.4l20.7-12c0.3-0.2,0.3-0.7,0-0.9l-20.7-12c-0.3-0.2-0.8,0-0.8,0.4v23.9	C24.5,299.3,25,299.6,25.3,299.4z"/>
 <path class="st0" d="M25.3,328.2l20.7-12c0.3-0.2,0.3-0.7,0-0.9l-20.7-12c-0.3-0.2-0.8,0-0.8,0.4v23.9	C24.5,328.1,25,328.4,25.3,328.2z"/>
 <path class="st0" d="M25.3,270.7l20.7-12c0.3-0.2,0.3-0.7,0-0.9l-20.7-12c-0.3-0.2-0.8,0-0.8,0.4v23.9	C24.5,270.7,25,270.9,25.3,270.7z"/>
 <path class="st3" d="M46,260.3l-20.7,12c-0.3,0.2-0.3,0.7,0,0.9l20.7,12c0.3,0.2,0.8,0,0.8-0.4v-23.9	C46.8,260.4,46.3,260.1,46,260.3z"/>
 <path class="st2" d="M22.2,245.9l-20.7,12c-0.3,0.2-0.3,0.7,0,0.9l20.7,12c0.3,0.2,0.8,0,0.8-0.4v-23.9	C23,246,22.6,245.7,22.2,245.9z"/>
 <path class="st0" d="M1.5,285.1l20.7-12c0.3-0.2,0.3-0.7,0-0.9l-20.7-12c-0.3-0.2-0.8,0-0.8,0.4v23.9C0.8,285.1,1.2,285.3,1.5,285.1	z"/>
 <path class="st2" d="M309.8,12c0,0.4,0.4,0.6,0.8,0.4l20.7-12c0.2-0.1,0.3-0.3,0.3-0.4h-21.7V12z"/>
 <path class="st0" d="M286.8,0.5l20.7,12c0.3,0.2,0.8,0,0.8-0.4V0h-21.7C286.5,0.2,286.6,0.4,286.8,0.5z"/>
 <path class="st0" d="M262.2,12c0,0.4,0.4,0.6,0.8,0.4l20.7-12c0.2-0.1,0.3-0.3,0.3-0.4h-21.7V12z"/>
 <path class="st2" d="M239.2,0.5l20.7,12c0.3,0.2,0.8,0,0.8-0.4V0H239C239,0.2,239.1,0.4,239.2,0.5z"/>
 <path class="st0" d="M214.7,12c0,0.4,0.4,0.6,0.8,0.4l20.7-12c0.2-0.1,0.3-0.3,0.3-0.4h-21.7V12z"/>
 <path class="st2" d="M191.7,0.5l20.7,12c0.3,0.2,0.8,0,0.8-0.4V0h-21.7C191.4,0.2,191.5,0.4,191.7,0.5z"/>
 <path class="st0" d="M167.2,12c0,0.4,0.4,0.6,0.8,0.4l20.7-12c0.2-0.1,0.3-0.3,0.3-0.4h-21.7V12z"/>
 <path class="st2" d="M144.1,0.5l20.7,12c0.3,0.2,0.8,0,0.8-0.4V0h-21.7C143.9,0.2,144,0.4,144.1,0.5z"/>
 <path class="st0" d="M119.6,12c0,0.4,0.4,0.6,0.8,0.4l20.7-12c0.2-0.1,0.2-0.3,0.2-0.4h-21.7V12z"/>
 <path class="st2" d="M96.6,0.5l20.7,12c0.3,0.2,0.8,0,0.8-0.4V0H96.4C96.4,0.2,96.4,0.4,96.6,0.5z"/>
 <path class="st6" d="M72.1,12c0,0.4,0.4,0.6,0.8,0.4l20.7-12c0.2-0.1,0.2-0.3,0.2-0.4H72.1V12z"/>
 <path class="st0" d="M49.1,0.5l20.7,12c0.3,0.2,0.8,0,0.8-0.4V0H48.8C48.8,0.2,48.9,0.4,49.1,0.5z"/>
 <path class="st3" d="M24.5,12c0,0.4,0.4,0.6,0.8,0.4L46,0.5c0.2-0.1,0.3-0.3,0.3-0.4H24.5V12z"/>
 <path class="st0" d="M1.5,0.5l20.7,12c0.3,0.2,0.8,0,0.8-0.4V0H1.3C1.3,0.2,1.4,0.4,1.5,0.5z"/>
 <path class="st2" d="M331.3,344l-20.7-12c-0.3-0.2-0.8,0-0.8,0.4v12h21.7C331.5,344.3,331.4,344.1,331.3,344z"/>
 <path class="st0" d="M308.2,332.5c0-0.4-0.4-0.6-0.8-0.4l-20.7,12c-0.2,0.1-0.3,0.3-0.3,0.4h21.7V332.5z"/>
 <path class="st0" d="M283.7,344L263,332c-0.3-0.2-0.8,0-0.8,0.4v12H284C284,344.3,283.9,344.1,283.7,344z"/>
 <path class="st2" d="M260.7,332.5c0-0.4-0.4-0.6-0.8-0.4l-20.7,12c-0.2,0.1-0.3,0.3-0.3,0.4h21.7V332.5z"/>
 <path class="st0" d="M236.2,344l-20.7-12c-0.3-0.2-0.8,0-0.8,0.4v12h21.7C236.4,344.3,236.3,344.1,236.2,344z"/>
 <path class="st2" d="M213.2,332.5c0-0.4-0.4-0.6-0.8-0.4l-20.7,12c-0.2,0.1-0.3,0.3-0.3,0.4h21.7V332.5z"/>
 <path class="st0" d="M188.6,344l-20.7-12c-0.3-0.2-0.8,0-0.8,0.4v12h21.7C188.9,344.3,188.8,344.1,188.6,344z"/>
 <path class="st2" d="M165.6,332.5c0-0.4-0.4-0.6-0.8-0.4l-20.7,12c-0.2,0.1-0.3,0.3-0.3,0.4h21.7V332.5z"/>
 <path class="st0" d="M141.1,344l-20.7-12c-0.3-0.2-0.8,0-0.8,0.4v12h21.7C141.3,344.3,141.3,344.1,141.1,344z"/>
 <path class="st2" d="M118.1,332.5c0-0.4-0.4-0.6-0.8-0.4l-20.7,12c-0.2,0.1-0.3,0.3-0.3,0.4h21.7V332.5z"/>
 <path class="st6" d="M93.6,344l-20.7-12c-0.3-0.2-0.8,0-0.8,0.4v12h21.7C93.8,344.3,93.7,344.1,93.6,344z"/>
 <path class="st0" d="M70.5,332.5c0-0.4-0.4-0.6-0.8-0.4l-20.7,12c-0.2,0.1-0.3,0.3-0.3,0.4h21.7V332.5z"/>
 <path class="st3" d="M46,344l-20.7-12c-0.3-0.2-0.8,0-0.8,0.4v12h21.7C46.3,344.3,46.2,344.1,46,344z"/>
 <path class="st0" d="M23,332.5c0-0.4-0.4-0.6-0.8-0.4L1.5,344c-0.2,0.1-0.3,0.3-0.3,0.4H23V332.5z"/>
</svg>
