<svg xmlns="http://www.w3.org/2000/svg" viewBox="0 0 118.7 118.7">
 <path d="M98.2,73.9v6.3h14.2v-6.3c0-12.6-10.3-22.9-22.9-22.9h-23V39H52.3v12H29.2C16.6,51,6.3,61.3,6.3,73.9v6.3h14.2v-6.3	c0-4.8,3.9-8.7,8.7-8.7h23.1v14.9h14.2V65.3h23.1C94.3,65.3,98.2,69.2,98.2,73.9z"/>
 <path d="M59.1,30.7c7.4,0,13.4-6,13.4-13.4s-6-13.4-13.4-13.4c-7.4,0-13.4,6-13.4,13.4S51.7,30.7,59.1,30.7z"/>
 <path d="M13.4,88.1C6,88.1,0,94.1,0,101.5l0,0c0,7.4,6,13.4,13.4,13.4s13.4-6,13.4-13.4l0,0C26.8,94.1,20.8,88.1,13.4,88.1z"/>
 <path d="M59.4,88.1c-7.4,0-13.4,6-13.4,13.4l0,0c0,7.4,6,13.4,13.4,13.4c7.4,0,13.4-6,13.4-13.4l0,0	C72.8,94.1,66.8,88.1,59.4,88.1z"/>
 <path d="M105.3,88.1c-7.4,0-13.4,6-13.4,13.4l0,0c0,7.4,6,13.4,13.4,13.4c7.4,0,13.4-6,13.4-13.4l0,0	C118.7,94.1,112.7,88.1,105.3,88.1z"/>
</svg>
