<?xml version="1.0" encoding="utf-8"?>
<svg version="1.1" xmlns="http://www.w3.org/2000/svg" xmlns:xlink="http://www.w3.org/1999/xlink" x="0px" y="0px" viewBox="0 0 118.7 118.7" style="enable-background:new 0 0 118.7 118.7;" xml:space="preserve">
 <path d="M67.6,46.9c-0.1-0.1-0.2-0.3-0.3-0.4c-0.6-0.7-1.3-1.4-2-2.1c-0.1-0.1-0.1-0.1-0.1-0.1c-0.7-0.7-1.5-1.4-2.3-2.1 c0,0,0,0,0,0c-6.7-5.3-15.9-8.6-26-8.6C16.5,33.5,0,46.7,0,62.9C0,70,3.2,76.6,8.5,81.7v9.4l9.2-3.1c5.6,2.7,12.1,4.3,19.1,4.3 c0.8,0,1.5-0.1,2.3-0.1c-0.8-2.7-1.2-5.6-1.2-8.5c0-10,4.8-19.1,12.7-25.7c5.1-4.3,11.3-7.5,18.4-9.4C68.5,48,68,47.4,67.6,46.9z"/>
 <path d="M101.9,16.3V6.9l-9.3,3.1C87,7.2,80.5,5.6,73.5,5.6c-16.5,0-30.4,8.6-35.1,20.5c16.9,0.5,31.4,9,38.2,21.1 c1.7-0.2,3.5-0.3,5.3-0.3c7.9,0,15.4,1.8,21.8,4.8c4.1-4.7,6.6-10.5,6.6-16.8C110.3,27.9,107.2,21.4,101.9,16.3z"/>
 <path d="M118.7,83.7c0-16.2-16.5-29.4-36.8-29.4c-20.3,0-36.8,13.2-36.8,29.4s16.5,29.4,36.8,29.4c7,0,13.5-1.6,19.1-4.3l9.3,3.1 v-9.4C115.6,97.4,118.7,90.8,118.7,83.7z"/>
</svg>
