<?xml version="1.0" encoding="utf-8" ?>
<svg version="1.1" xmlns="http://www.w3.org/2000/svg" xmlns:xlink="http://www.w3.org/1999/xlink" viewBox="0 0 118.7 118.7">
	<rect width="100%" height="100%" fill="#FBD113" />
	<path d="M55.2,73.2c2.1,2.6,6,2.6,8.2,0l20.7-25.8c2.8-3.5,0.3-8.6-4.1-8.6h-3.8c-2.9,0-5.3-2.3-5.3-5.3V14.7c0-2.9-2.3-5.3-5.3-5.3	H53c-2.9,0-5.3,2.3-5.3,5.3v18.9c0,2.9-2.3,5.3-5.3,5.3h-3.8c-4.4,0-6.8,5.1-4.1,8.6L55.2,73.2z" />
	<path d="M97.7,74.6v11.6c0,5.5-4.5,10-10,10H31.1c-5.5,0-10-4.5-10-10V74.6H8.1v11.6c0,12.7,10.4,23.1,23.1,23.1h56.4	c12.7,0,23.1-10.4,23.1-23.1V74.6H97.7z" />
</svg>
