<?xml version="1.0" encoding="UTF-8" standalone="no"?>
<svg xmlns="http://www.w3.org/2000/svg" xmlns:svg="http://www.w3.org/2000/svg" version="1.1" viewBox="0 0 118.74 118.74">
 <path fill="#fd1" d="m 118.74,45.063832 v -7.820188 h -15.71731 v -1.915946 c 0,-4.731214 -1.68121,-9.090968 -4.476701,-12.473199 -0.390977,-0.488762 -0.821053,-0.957973 -1.270678,-1.388084 -3.557899,-3.538635 -8.445123,-5.747838 -13.860168,-5.747838 v 0 H 81.499351 V 0 H 73.679793 V 15.699027 H 63.240682 V 0 H 55.47977 V 15.699027 H 45.040659 V 0 H 37.2211 v 15.699027 h -1.915792 v 0 c -1.348874,0 -2.678199,0.136853 -3.948877,0.391009 -0.645114,0.136854 -1.270679,0.293257 -1.876694,0.488762 -1.231581,0.391009 -2.404515,0.879771 -3.518802,1.485836 -1.114287,0.606064 -2.150379,1.309881 -3.127823,2.11145 -0.977445,0.80157 -1.857146,1.681341 -2.65865,2.658864 -0.801505,0.977524 -1.505265,2.013698 -2.111281,3.128075 -1.505265,2.776167 -2.365417,5.962893 -2.365417,9.345125 v 1.915946 H 0 v 7.820187 H 15.697764 V 55.484232 H 0 v 7.761536 H 15.697764 V 73.685719 H 0 v 7.820187 h 15.697764 v 1.915946 c 0,4.731214 1.681205,9.090969 4.476698,12.4732 3.596997,4.359758 9.03159,7.135918 15.130846,7.135918 H 37.2211 V 118.73 h 7.819559 V 103.03097 H 55.47977 V 118.73 h 7.760912 V 103.03097 H 73.679793 V 118.73 h 7.819558 v -15.69903 h 1.915792 c 7.193994,0 13.449641,-3.89054 16.870697,-9.657929 1.7203,-2.91302 2.73685,-6.314801 2.73685,-9.951189 v -1.915946 h 15.69776 V 73.685719 H 103.02269 V 63.245768 h 15.69776 V 55.484232 H 103.02269 V 45.044281 H 118.74 Z M 92.133951,82.854889 c 0,5.122223 -4.144366,9.286473 -9.285726,9.286473 h -46.95645 c -5.121811,0 -9.285726,-4.1447 -9.285726,-9.286473 V 35.894662 c 0,-5.122223 4.144366,-9.286473 9.285726,-9.286473 h 46.95645 c 5.121811,0 9.285726,4.144699 9.285726,9.286473 z"/>
 <path fill="#fd1" d="M 68.33,48.01 H 50.41 c -1.33,0 -2.4,1.08 -2.4,2.4 v 17.93 c 0,1.33 1.08,2.4 2.4,2.4 h 17.93 c 1.33,0 2.4,-1.08 2.4,-2.4 V 50.41 c 0,-1.33 -1.08,-2.4 -2.41,-2.4 z"/>
</svg>
