<?xml version="1.0" encoding="utf-8" ?>
<svg version="1.1" xmlns="http://www.w3.org/2000/svg" xmlns:xlink="http://www.w3.org/1999/xlink" viewBox="0 0 118.7 118.7">
	<path d="M118.7,45.1v-7.8H103v-1.9c0-4.7-1.7-9.1-4.5-12.5c-0.4-0.5-0.8-1-1.3-1.4c-3.6-3.5-8.4-5.7-13.9-5.7l0,0h-1.9V0h-7.8 v15.7H63.2V0h-7.8v15.7H45V0h-7.8v15.7h-1.9l0,0c-1.3,0-2.7,0.1-3.9,0.4c-0.6,0.1-1.3,0.3-1.9,0.5c-1.2,0.4-2.4,0.9-3.5,1.5 c-1.1,0.6-2.2,1.3-3.1,2.1c-1,0.8-1.9,1.7-2.7,2.7s-1.5,2-2.1,3.1c-1.5,2.8-2.4,6-2.4,9.3v1.9H0V45h15.7v10.4H0v7.8h15.7v10.4H0 v7.8h15.7v1.9c0,4.7,1.7,9.1,4.5,12.5c3.6,4.4,9,7.1,15.1,7.1h1.9v15.7H45V103h10.4v15.7h7.8V103h10.4v15.7h7.8V103h1.9 c7.2,0,13.5-3.9,16.9-9.7c1.7-2.9,2.7-6.3,2.7-10v-1.9h15.7v-7.8H103V63.2h15.7v-7.8H103V45L118.7,45.1L118.7,45.1z M92.1,82.9 c0,5.1-4.1,9.3-9.3,9.3h-47c-5.1,0-9.3-4.1-9.3-9.3v-47c0-5.1,4.1-9.3,9.3-9.3h47c5.1,0,9.3,4.1,9.3,9.3 C92.1,35.9,92.1,82.9,92.1,82.9z" />
	<path d="M76.9,37.2h-35c-2.6,0-4.7,2.1-4.7,4.7v35.1c0,2.6,2.1,4.7,4.7,4.7h35.1c2.6,0,4.7-2.1,4.7-4.7V41.9 C81.6,39.3,79.5,37.2,76.9,37.2z" />
</svg>
