<?xml version="1.0" encoding="utf-8" ?>
<svg version="1.1" xmlns="http://www.w3.org/2000/svg" xmlns:xlink="http://www.w3.org/1999/xlink" viewBox="0 0 118.7 118.7">
	<path d="M113.7,54.6L83.9,30.7c-4-3.2-9.9-0.4-9.9,4.7v4.4c0,3.3-2.7,6.1-6.1,6.1H46c-3.3,0-6.1,2.7-6.1,6.1v14.8 c0,3.3,2.7,6.1,6.1,6.1H68c3.3,0,6.1,2.7,6.1,6.1v4.4c0,5.1,5.9,7.9,9.9,4.7l29.8-23.9C116.7,61.7,116.7,57.1,113.7,54.6z" />
	<path d="M2.7,26.7V92c0,14.7,12,26.7,26.7,26.7h13.4v-15.1H29.5c-6.4,0-11.6-5.2-11.6-11.6V26.7c0-6.4,5.2-11.6,11.6-11.6h13.4V0 H29.5C14.8,0,2.7,12,2.7,26.7z" />
</svg>
