<?xml version="1.0" encoding="UTF-8" ?>
<svg xmlns="http://www.w3.org/2000/svg" version="1.1" viewBox="0 0 80 80">
	<path d="M68.59,61.38c0,4.18-3.4,7.58-7.58,7.58H18.53c-4.18,0-7.58-3.4-7.58-7.58v-8.7H1.13v8.7c0,9.59,7.8,17.4,17.4,17.4h42.49c9.59,0,17.4-7.8,17.4-17.4v-8.7h-9.82v8.7Z" />
	<path d="M79.89,18.18c-.3-1.33-1.23-2.45-2.49-2.98L45.3,1.57c-1.48-.63-3.17-.38-4.4.65-1.24,1.03-1.78,2.65-1.42,4.22l1.54,6.75c-12.48,5.95-24.46,18.99-21.19,38.1.27,1.61,1.41,2.89,2.97,3.36.41.12.83.18,1.24.18,1.15,0,2.27-.47,3.1-1.34,5-5.31,14.43-10.31,20.11-13.03l1.33,5.83c.36,1.57,1.55,2.79,3.11,3.19.65.17,1.34.17,2,.02.88-.2,1.66-.67,2.26-1.35l23.01-26.22c.9-1.02,1.26-2.43.95-3.76ZM50.13,14.79l-.48-2.11,18.99,8.06-13.61,15.51-.64-2.79c-.28-1.23-1.08-2.27-2.2-2.84-1.12-.58-2.43-.63-3.59-.15-.49.21-11.63,4.88-20.58,11.19,2.07-15.68,18.64-21.64,19.36-21.9,2.06-.72,3.24-2.86,2.75-4.98Z" />
</svg>
