<?xml version="1.0" encoding="utf-8" ?>
<svg version="1.1" xmlns="http://www.w3.org/2000/svg" xmlns:xlink="http://www.w3.org/1999/xlink" viewBox="0 0 118.7 118.7">
	<path d="M112.5,59.7H19.9c-1.5,0-3,0.6-4.1,1.5c-0.7,0.6-1.2,1.3-1.6,2.2l-13.8,31c-0.2,0.5-0.4,1-0.5,1.5l0,0 c-0.1,0.6-0.1,1.3,0,1.9l0,0c0,0,0,0,0,0c0.1,0.6,0.3,1.2,0.6,1.8c0.1,0.1,0.1,0.3,0.2,0.4c0.1,0.2,0.3,0.4,0.4,0.6 c0.1,0.2,0.3,0.3,0.4,0.5c0.1,0.1,0.3,0.3,0.4,0.4c0.3,0.3,0.6,0.5,1,0.7c0.1,0.1,0.3,0.1,0.4,0.2c0.3,0.1,0.6,0.3,0.9,0.4 c0.1,0,0.3,0.1,0.4,0.1c0.5,0.1,0.9,0.2,1.4,0.2h92.6c0.9,0,1.8-0.2,2.6-0.6c0.3-0.1,0.5-0.3,0.8-0.4c1-0.6,1.8-1.6,2.3-2.7 l13.8-31C120,64.3,117,59.7,112.5,59.7z" />
	<path d="M19.9,51.7h91.3V35.2c0-3.3-2.7-6-6-6h-43c-2,0-3.8-1-4.9-2.5l-5.9-8.4c-1.1-1.6-3-2.5-4.9-2.5H6.1c-3.3,0-6,2.7-6,6v53.9 L7,60.1C9.2,55,14.3,51.7,19.9,51.7z" />
</svg>
