<?xml version="1.0" encoding="utf-8" ?>
<svg version="1.1" xmlns="http://www.w3.org/2000/svg" xmlns:xlink="http://www.w3.org/1999/xlink" viewBox="0 0 24 24">
	<path d="M3,3 L9,3 C9.6,3 10,3.4 10,4 C10,4.6 9.6,5 9,5 L5,5 L5,9 C5,9.6 4.6,10 4,10 C3.4,10 3,9.6 3,9 L3,3 Z M15,3 L21,3 L21,9 C21,9.6 20.6,10 20,10 C19.4,10 19,9.6 19,9 L19,5 L15,5 C14.4,5 14,4.6 14,4 C14,3.4 14.4,3 15,3 Z M3,15 L3,21 L9,21 C9.6,21 10,20.6 10,20 C10,19.4 9.6,19 9,19 L5,19 L5,15 C5,14.4 4.6,14 4,14 C3.4,14 3,14.4 3,15 Z M21,15 L21,21 L15,21 C14.4,21 14,20.6 14,20 C14,19.4 14.4,19 15,19 L19,19 L19,15 C19,14.4 19.4,14 20,14 C20.6,14 21,14.4 21,15 Z" />
</svg>
