<svg xmlns="http://www.w3.org/2000/svg" viewBox="0 0 24 24" fill="currentColor">
	<path fill-rule="evenodd" clip-rule="evenodd" d="M12 0.5C5.73 0.5.75 5.62.75 12.02c0 5.12 3.17 9.46 7.57 11 .55.1.76-.24.76-.54 0-.27-.01-1.16-.02-2.1-3.08.68-3.73-1.23-3.73-1.23 -.5-1.32-1.22-1.67-1.22-1.67-1-.7.08-.69.08-.69 1.1.08 1.68 1.16 1.68 1.16 .98 1.72 2.57 1.22 3.2.93.1-.73.38-1.22.69-1.5-2.46-.29-5.05-1.26-5.05-5.62 0-1.24.43-2.26 1.14-3.05-.12-.29-.5-1.45.11-3.02 0 0 .93-.3 3.05 1.16 .88-.25 1.82-.38 2.76-.38.94 0 1.88.13 2.76.38 2.12-1.46 3.05-1.16 3.05-1.16 .61 1.57.23 2.73.11 3.02.71.79 1.14 1.81 1.14 3.05 0 4.37-2.6 5.33-5.07 5.61 .39.35.74 1.04.74 2.1 0 1.52-.02 2.75-.02 3.12 0 .3.2.65.77.54 4.39-1.54 7.55-5.88 7.55-11C23.25 5.62 18.27.5 12 .5z" />
</svg>
