<?xml version="1.0" encoding="UTF-8" ?>
<svg xmlns="http://www.w3.org/2000/svg" version="1.1" viewBox="0 0 80 80">
	<path d="M78.45,38.44l-10.5-8.81v-14.87c0-2.61-2.11-4.72-4.72-4.72h-1.69c-2.61,0-4.72,2.11-4.72,4.72v5.52l-16.82-14.12L1.55,38.44c-1.84,1.54-2.08,4.29-.53,6.13h0c1.54,1.84,4.29,2.08,6.13.53l32.85-27.59,32.85,27.59c1.84,1.55,4.58,1.31,6.13-.53h0c1.54-1.84,1.31-4.58-.53-6.13Z" />
	<path d="M58.64,65.15h-10.46v-9.83c0-4.1-3.32-7.43-7.43-7.43h-1.51c-4.1,0-7.43,3.32-7.43,7.43v9.83h-10.46v-26.86l-8.7,7.3v23.9c0,2.4,1.95,4.35,4.35,4.35h45.97c2.4,0,4.35-1.95,4.35-4.35v-23.9l-8.7-7.3v26.86Z" />
</svg>
