<?xml version="1.0" encoding="UTF-8" ?>
<svg xmlns="http://www.w3.org/2000/svg" version="1.1" viewBox="0 0 80 80">
	<path d="M4.54,24.47c7.41,1.46,16.99,6.97,22.5,10.45l-4.38,4.38c-1.18,1.18-1.59,2.9-1.08,4.48.21.66.59,1.27,1.08,1.76.66.66,1.5,1.09,2.42,1.24l35.65,5.73c.23.04.47.06.7.06,1.16,0,2.29-.46,3.13-1.29,1-1,1.46-2.43,1.24-3.82l-5.73-35.65c-.27-1.65-1.42-2.99-3-3.5-1.59-.51-3.3-.1-4.48,1.08l-5.07,5.07C42.33,11.19,21.34-.06,2.45,16.85c-1.26,1.12-1.76,2.83-1.31,4.46.45,1.63,1.75,2.84,3.4,3.17ZM37.11,37.34c.92-.92,1.39-2.2,1.28-3.5-.11-1.3-.79-2.48-1.85-3.23-.45-.32-10.61-7.48-21.15-11.88,14.89-6.82,29.24,4.42,29.86,4.91,1.76,1.41,4.29,1.27,5.88-.33l1.58-1.58,3.39,21.09-21.09-3.39,2.09-2.09Z" />
	<path d="M69.84,51.77v9c0,4.33-3.52,7.84-7.84,7.84H18.01c-4.33,0-7.84-3.52-7.84-7.84v-9H0v9C0,70.7,8.08,78.78,18.01,78.78h43.98c9.93,0,18.01-8.08,18.01-18.01v-9h-10.16Z" />
</svg>
