<?xml version="1.0" encoding="UTF-8" ?>
<svg xmlns="http://www.w3.org/2000/svg" version="1.1" viewBox="0 0 80 80">
	<path stroke="currentColor" stroke-width="6.8px" d="M22.36,14.33h-6.21c-1.75,0-3.17,1.42-3.17,3.17v9.51C12.99,34.18,7.17,40,0,40h0" />
	<path stroke="currentColor" stroke-width="6.8px" d="M22.36,65.67h-6.21c-1.75,0-3.17-1.42-3.17-3.17v-9.51C12.99,45.82,7.17,40,0,40h0" />
	<path stroke="currentColor" stroke-width="6.8px" d="M57.64,65.67h6.21c1.75,0,3.17-1.42,3.17-3.17v-9.51c0-7.17,5.82-12.99,12.99-12.99h0" />
	<path stroke="currentColor" stroke-width="6.8px" d="M57.64,14.33h6.21c1.75,0,3.17,1.42,3.17,3.17v9.51c0,7.17,5.82,12.99,12.99,12.99h0" />
	<path d="M40,45.81c-2.36,0-4.26,1.91-4.26,4.27s1.91,4.26,4.26,4.26,4.26-1.91,4.26-4.26-1.91-4.27-4.26-4.27Z" />
	<path d="M26.39,45.81c-2.36,0-4.26,1.91-4.26,4.27s1.91,4.26,4.26,4.26,4.26-1.91,4.26-4.26-1.91-4.27-4.26-4.27Z" />
	<path d="M53.61,45.81c-2.36,0-4.26,1.91-4.26,4.27s1.91,4.26,4.26,4.26,4.26-1.91,4.26-4.26-1.91-4.27-4.26-4.27Z" />
</svg>
