<?xml version="1.0" encoding="UTF-8" standalone="no" ?>
<svg version="1.1" xmlns="http://www.w3.org/2000/svg" xmlns:svg="http://www.w3.org/2000/svg" viewBox="0 0 118.74 118.74" style="enable-background:new 0 0 118.74 118.74;">
	<g id="g2" transform="matrix(2.1560168,0,0,2.1560168,-68.634085,-68.627572)">
		<polygon points="67.75,59.5 64.81,67.2 70.69,67.2 " id="polygon1" />
		<path d="M 86.32,48.96 C 85.33,40.27 78.47,33.41 69.78,32.43 l -0.13,-0.02 c -6.83,-0.77 -13.72,-0.77 -20.55,0 l -0.14,0.02 c -8.69,0.98 -15.55,7.84 -16.54,16.53 -0.78,6.83 -0.78,13.72 -0.01,20.55 l 0.03,0.25 c 0.98,8.7 7.84,15.57 16.54,16.55 l 0.12,0.01 c 6.83,0.77 13.72,0.77 20.55,0 l 0.12,-0.01 c 8.7,-0.98 15.56,-7.85 16.54,-16.55 l 0.03,-0.25 C 87.1,62.68 87.1,55.79 86.32,48.96 Z M 44.97,68.41 43.06,65.66 c 0.07,-0.05 3.66,-2.58 7.67,-6.58 -3.3,-3.45 -4.84,-6.13 -4.95,-6.34 L 48.7,51.1 c 0.02,0.04 1.39,2.42 4.35,5.53 2.36,-2.64 4.65,-5.71 6.26,-9.03 H 40.58 v -3.35 h 11.61 v -4.81 h 3.35 v 4.81 h 11.61 v 3.35 h -4.17 c -1.81,4.26 -4.64,8.15 -7.53,11.38 2.42,2.18 3.89,3.25 4.46,3.56 l -1.28,3.34 c -1.86,-1.35 -2.9,-2.1 -5.5,-4.45 -4.15,4.16 -7.87,6.77 -8.16,6.98 z m 29.19,7.9 -2.28,-5.99 h -8.26 l -2.28,5.99 h -3.46 l 8.14,-21.34 h 3.46 l 8.14,21.34 z" id="path2" />
	</g>
</svg>
