<?xml version="1.0" encoding="utf-8" ?>
<svg version="1.1" xmlns="http://www.w3.org/2000/svg" xmlns:xlink="http://www.w3.org/1999/xlink" viewBox="0 0 118.7 118.7">
	<path d="M118.7,64.4v-10H64.4v-8.2h8.7c2.9,0,5.6-1.2,7.5-3.1c0.1-0.1,0.1-0.2,0.2-0.3c1.8-1.9,2.9-4.4,2.9-7.2l0,0V20.8l0,0 c0-1.5-0.3-2.8-0.8-4.1c-0.5-1.1-1.2-2.2-2-3.1c-0.1-0.1-0.1-0.2-0.2-0.3c-1.9-1.9-4.6-3.1-7.5-3.1H45.7c-5.8,0-10.6,4.7-10.6,10.6 v14.8c0,5.8,4.7,10.6,10.6,10.6h8.7v8.2H0v10h25.8v8.2h-8.7c-5.8,0-10.6,4.7-10.6,10.6l0,0V98l0,0c0,2.2,0.7,4.2,1.8,5.9 c0.8,1.1,1.7,2.1,2.8,2.8c0.6,0.4,1.2,0.7,1.8,1c1.3,0.5,2.6,0.8,4.1,0.8h27.4c1.5,0,2.8-0.3,4.1-0.8c0.6-0.3,1.2-0.6,1.8-1 c1.1-0.8,2.1-1.7,2.8-2.8c1.1-1.7,1.8-3.7,1.8-5.9l0,0V83.2l0,0c0-5.8-4.7-10.6-10.6-10.6h-8.7v-8.2h48.9v8.2h-8.7 c-5.8,0-10.6,4.7-10.6,10.6l0,0V98l0,0c0,2.2,0.7,4.2,1.8,5.9c0.8,1.1,1.7,2.1,2.8,2.8c0.6,0.4,1.2,0.7,1.8,1 c1.3,0.5,2.6,0.8,4.1,0.8h27.4c1.2,0,2.4-0.3,3.5-0.6c0.9-0.3,1.7-0.7,2.4-1.2c1.1-0.8,2.1-1.7,2.8-2.8c1.1-1.7,1.8-3.7,1.8-5.9 l0,0V83.2l0,0c0-4.1-2.4-7.6-5.8-9.4c-0.4-0.2-0.8-0.4-1.2-0.5c-1.1-0.4-2.3-0.6-3.5-0.6h-8.7v-8.2 C94.8,64.4,118.7,64.4,118.7,64.4z" />
</svg>
