<?xml version="1.0" encoding="UTF-8" standalone="no"?>
<svg xmlns="http://www.w3.org/2000/svg" xmlns:svg="http://www.w3.org/2000/svg" version="1.1" viewBox="0 0 118.74 118.74">
	<path fill="#fd1" d="m 113.34189,39.382531 c -3.34168,-3.323324 -7.93191,-5.398107 -13.01788,-5.398107 h 0.0367 V 19.222253 h -7.344366 v 14.74381 H 81.761128 v -14.74381 h -7.25256 v 14.74381 H 63.01464 v -14.74381 h -7.289282 v 14.74381 H 44.23143 v -14.74381 h -7.25256 v 14.74381 H 25.723634 V 19.222253 H 18.37927 v 14.74381 h 0.03672 c -1.266904,0 -2.515445,0.128529 -3.708904,0.367218 -0.60591,0.128529 -1.193458,0.275414 -1.762647,0.459023 -1.156737,0.367217 -2.258392,0.826241 -3.3049638,1.395429 -1.0465719,0.569188 -2.0197,1.23018 -2.9377455,1.982978 C 5.7836864,38.923508 4.9574454,39.749749 4.2046482,40.667795 3.4518509,41.58584 2.7908582,42.558968 2.22167,43.60554 0.80787999,46.212789 0,49.205617 0,52.382055 v 1.799368 3.011189 7.344364 1.79937 c 0,4.44334 1.5790382,8.537821 4.2046482,11.714259 3.3784071,4.094482 8.4827398,6.701732 14.2113438,6.701732 h -0.03672 v 14.743809 h 7.344364 V 84.770698 H 36.97887 v 14.74381 h 7.25256 v -14.74381 h 11.493928 v 14.74381 h 7.289282 v -14.74381 h 11.493928 v 14.74381 h 7.25256 v -14.74381 h 11.255236 v 14.74381 h 7.344366 v -14.74381 h -0.0367 c 6.75681,0 12.6323,-3.653821 15.84546,-9.070289 1.61576,-2.735775 2.57053,-5.930574 2.57053,-9.345703 v -1.799368 -7.344364 -3.01119 -1.799369 c 0,-4.44334 -1.57904,-8.537823 -4.20465,-11.714259 -0.36722,-0.459023 -0.77116,-0.899685 -1.19346,-1.303625 z"/>
</svg>
