<?xml version="1.0" encoding="UTF-8" ?>
<svg id="Vrstva_1" xmlns="http://www.w3.org/2000/svg" version="1.1" viewBox="0 0 80 80">
	<path d="M75.16,40.33c-3-.5-5.83,1.51-6.34,4.51-1,5.95-3.8,11.36-8.08,15.65-5.47,5.48-12.75,8.49-20.5,8.49s-15.02-3.02-20.5-8.49c-5.48-5.47-8.49-12.75-8.49-20.5s3.02-15.02,8.49-20.5c9.37-9.37,23.6-10.96,34.64-4.8-2.95.1-5.32,2.52-5.32,5.49s2.46,5.5,5.5,5.5h13.01c3.04,0,5.5-2.46,5.5-5.5V7.17c0-3.04-2.46-5.5-5.5-5.5-2.82,0-5.14,2.12-5.46,4.85C46.62-3.62,25.57-1.89,11.96,11.71,4.41,19.27.25,29.31.25,39.99s4.16,20.72,11.71,28.28,17.6,11.71,28.28,11.71,20.72-4.16,28.28-11.71c5.91-5.91,9.77-13.38,11.15-21.6.5-3-1.51-5.83-4.51-6.34Z" />
</svg>
