<?xml version="1.0" encoding="utf-8" ?>
<svg version="1.1" xmlns="http://www.w3.org/2000/svg" xmlns:xlink="http://www.w3.org/1999/xlink" viewBox="0 0 118.7 118.7">
	<path d="M105.9,59.4c0-2.8-0.3-5.5-0.8-8.2l7.8-8.4c2-2.1,2.4-5.4,0.9-7.9l-6-10.5c-1.5-2.6-4.5-3.9-7.3-3.2l-11.1,2.6	c-4.2-3.5-8.9-6.3-14.1-8.1L71.8,4.7C71,1.9,68.4,0,65.4,0H53.3c-3,0-5.6,1.9-6.4,4.7l-3.3,10.9c-5.2,1.9-10,4.7-14.1,8.1l-11.1-2.6	c-2.9-0.7-5.8,0.6-7.3,3.2l-6,10.5c-1.5,2.6-1.1,5.8,0.9,7.9l7.8,8.4c-0.5,2.7-0.8,5.4-0.8,8.2c0,2.8,0.3,5.5,0.8,8.2l-7.8,8.4	c-2,2.1-2.4,5.4-0.9,7.9l6,10.5c1.5,2.6,4.5,3.9,7.3,3.2l11.1-2.6c4.2,3.5,8.9,6.3,14.1,8.1l3.3,10.9c0.9,2.8,3.5,4.7,6.4,4.7h12.1	c3,0,5.6-1.9,6.4-4.7l3.3-10.9c5.2-1.9,10-4.7,14.1-8.1l11.1,2.6c2.9,0.7,5.9-0.6,7.3-3.2l6-10.5c1.5-2.6,1.1-5.8-0.9-7.9l-7.8-8.4	C105.6,64.9,105.9,62.2,105.9,59.4z M59.4,79.8c-11.3,0-20.5-9.2-20.5-20.5s9.2-20.5,20.5-20.5s20.5,9.2,20.5,20.5	S70.7,79.8,59.4,79.8z" />
</svg>
