<?xml version="1.0" encoding="UTF-8" standalone="no" ?>
<svg xmlns="http://www.w3.org/2000/svg" xmlns:svg="http://www.w3.org/2000/svg" version="1.1" viewBox="0 0 118.74 118.74">
	<path fill="#000" d="m 107.03976,51.651392 c 0.0232,0 0.0463,0 0.0695,0 L 95.385867,24.752438 C 93.856728,21.230785 90.381411,18.960244 86.558563,18.960244 H 32.135097 c -3.822848,0 -7.298165,2.270541 -8.827304,5.792194 L 11.58439,51.651392 c 0.02317,0 0.04634,0 0.06951,0 z" />
	<path fill="#000" d="m 109.37981,61.150592 c -0.76457,-0.16218 -1.52914,-0.231688 -2.34005,-0.231688 H 11.677065 c -0.787738,0 -1.575477,0.09267 -2.3400467,0.231688 C 4.008199,62.239525 0,66.942788 0,72.59597 v 15.499914 c 0,6.44092 5.2361443,11.677065 11.677065,11.677065 h 95.385865 c 6.44092,0 11.67707,-5.236145 11.67707,-11.677065 V 72.59597 c -0.0232,-5.653182 -4.03137,-10.356445 -9.36019,-11.445378 z M 72.773138,88.536091 c -4.517912,0 -8.201747,-3.660667 -8.201747,-8.201749 0,-4.541081 3.660666,-8.201747 8.201747,-8.201747 4.517912,0 8.201749,3.660666 8.201749,8.201747 0,4.541082 -3.683837,8.201749 -8.201749,8.201749 z m 23.956518,0 c -4.517911,0 -8.201747,-3.660667 -8.201747,-8.201749 0,-4.541081 3.660667,-8.201747 8.201747,-8.201747 4.517914,0 8.201754,3.660666 8.201754,8.201747 0,4.541082 -3.66067,8.201749 -8.201754,8.201749 z" />
</svg>
