<?xml version="1.0" encoding="UTF-8" ?>
<svg xmlns="http://www.w3.org/2000/svg" version="1.1" viewBox="0 0 80 80">
	<path d="M74.32,46.83c-6.41-6.41-16.18-7.39-23.63-2.97l-14.54-14.54c4.42-7.46,3.44-17.22-2.97-23.63C27.82.33,20.14-1.23,13.41.96l10.61,10.61-2.63,9.82-9.82,2.63L.96,13.41c-2.19,6.73-.62,14.42,4.72,19.76,6.41,6.41,16.18,7.39,23.64,2.97l14.54,14.54c-4.42,7.46-3.44,17.22,2.97,23.63,5.35,5.35,13.03,6.91,19.76,4.72l-10.61-10.61,2.63-9.82,9.82-2.63,10.61,10.61c2.19-6.73.62-14.42-4.72-19.76Z" />
</svg>
