<?xml version="1.0" encoding="utf-8" ?>
<svg version="1.1" xmlns="http://www.w3.org/2000/svg" xmlns:xlink="http://www.w3.org/1999/xlink" viewBox="0 0 118.7 118.7">
	<path d="M35.5,45.4h4.4c3.3,0,6.1,2.7,6.1,6.1v21.9c0,3.3,2.7,6.1,6.1,6.1h14.8c3.3,0,6.1-2.7,6.1-6.1V51.5c0-3.3,2.7-6.1,6.1-6.1 h4.4c5.1,0,7.9-5.9,4.7-9.9L64.1,5.7c-2.4-3-7-3-9.5,0L30.7,35.5C27.5,39.5,30.4,45.4,35.5,45.4z" />
	<path d="M103.7,75.2v13.4c0,6.4-5.2,11.6-11.6,11.6H26.7c-6.4,0-11.6-5.2-11.6-11.6V75.2H0v13.4c0,14.7,12,26.7,26.7,26.7H92 c14.7,0,26.7-12,26.7-26.7V75.2H103.7z" />
</svg>
