<svg xmlns="http://www.w3.org/2000/svg" viewBox="0 0 118.7 118.7">
	<path d="M59.4,10.2C26.6,10.2,0,31.6,0,57.9c0,11.7,5.2,22.4,13.9,30.7c-0.8,2.9-2.2,6.7-5,11s1,9.9,6,8.8c7.7-1.7,14-4.5,18.9-7.3	c7.7,3,16.4,4.7,25.6,4.7c32.8,0,59.4-21.4,59.4-47.7S92.2,10.2,59.4,10.2z M59.4,91.7c-5,0-9.1-4-9.1-9.1s4-9.1,9.1-9.1	s9.1,4,9.1,9.1S64.4,91.7,59.4,91.7z M67.9,61.8c-1.6,0.8-2.6,2.7-2.6,4.8H53.5c0-6.5,3.4-12.3,9-15.2c2.2-1.2,4.2-3.9,3.4-7.4	c-0.5-2.5-2.5-4.5-5-5c-2.1-0.4-4.1,0-5.7,1.3c-1.6,1.3-2.5,3.2-2.5,5.2H40.9c0-5.6,2.5-10.8,6.8-14.3s10-4.9,15.5-3.7	c7.1,1.5,12.7,7,14.1,14.1C79.1,49.8,75.3,58,67.9,61.8z"/>
</svg>
