<?xml version="1.0" encoding="utf-8"?>
<svg version="1.1" xmlns="http://www.w3.org/2000/svg" viewBox="0 0 118.7 118.7">
	<path d="M53.7,53.5c14.8,0,26.8-12,26.8-26.8S68.5,0,53.7,0S26.9,12,26.9,26.8C26.9,41.5,38.9,53.5,53.7,53.5z"/>
 <path d="M78.9,71.7c2-0.2,4-0.4,6-0.5c-8-7.6-18.9-12.3-30.8-12.3C29.3,58.9,9.3,79,9.3,103.8h52.8c-0.3-5.3-0.2-10.5,0.4-15.8l0,0	c1-8.6,7.7-15.4,16.3-16.3H78.9z"/>
	<polygon points="95.3,92 95.3,77.9 82.8,77.9 82.8,92 68.6,92 68.6,104.6 82.8,104.6 82.8,118.7 95.3,118.7 95.3,104.6 109.5,104.6 109.5,92 	"/>
</svg>
