<svg xmlns="http://www.w3.org/2000/svg" viewBox="0 0 118.7 118.7">
 <polygon points="78.1,0.6 78.1,28.5 106,28.5"/>
 <path d="M83,39.9c-9,0-16.3-7.3-16.3-16.3V0H28.4c-9,0-16.3,7.3-16.3,16.3v86.1c0,9,7.3,16.3,16.3,16.3h61.9	c9,0,16.3-7.3,16.3-16.3V39.9H83z M36,22.6h16.2v10.1H36V22.6z M36,44.4h32.5v10.1H36V44.4z M90.7,94.5h-12c-5.6,0-7.8-4.9-9-7.6	c-0.2-0.3-0.4-0.8-0.5-1.2c-0.1,0.2-0.2,0.5-0.3,0.6c-1.3,2.8-3.7,8.1-10.2,8.1c-7.5,0-8.5-8.3-9-13.3c-0.2-1.6-0.5-4.2-0.9-5.7	c-0.9,1.6-1.8,5.5-2.2,7.5c-1.1,5.1-2.5,11.5-8.5,11.5h-9.9V84.3h7.6c0.3-1.1,0.6-2.5,0.8-3.5c1.3-6,3.5-16,12.4-16	c9,0,10.1,9.9,10.7,15.3c0.1,0.5,0.1,1.1,0.2,1.6c1.3-2.7,3.6-7.1,9.2-7.1c6.2,0,8.6,5.3,9.8,8.1c0.2,0.5,0.5,1.2,0.8,1.6h11	C90.7,84.4,90.7,94.5,90.7,94.5z"/>
</svg>
