<?xml version="1.0" encoding="utf-8"?>
<!-- Generator: Adobe Illustrator 26.4.1, SVG Export Plug-In . SVG Version: 6.00 Build 0)  -->
<svg version="1.1" id="Vrstva_1" xmlns="http://www.w3.org/2000/svg" xmlns:xlink="http://www.w3.org/1999/xlink" x="0px" y="0px"
	 viewBox="0 0 118.7 118.7" style="enable-background:new 0 0 118.7 118.7;" xml:space="preserve">
<g>
	<g>
		<path d="M25.6,49.7h-6.2h-2.7c0,0,0,0,0,0c-0.4,0-0.9,0-1.3,0.1c-0.1,0-0.3,0-0.4,0.1c-0.3,0-0.6,0.1-0.9,0.2
			c-0.1,0-0.3,0.1-0.4,0.1c-0.3,0.1-0.6,0.2-0.9,0.3c-0.1,0-0.2,0.1-0.3,0.1c-0.3,0.1-0.7,0.3-1,0.4c-0.1,0-0.1,0.1-0.2,0.1
			c-3.8,2-6.5,6-6.5,10.6v8.5c0,6.6,5.3,11.9,11.9,11.9h8.9c1.8,0,3.3-1.5,3.3-3.3V53C28.9,51.2,27.4,49.7,25.6,49.7z"/>
		<path d="M112.4,55.6c0,0,0-0.1-0.1-0.1c-0.6-1-1.3-1.8-2.1-2.6c0,0-0.1-0.1-0.1-0.1c-0.4-0.4-0.8-0.7-1.3-1l0,0
			c-0.4-0.3-0.9-0.6-1.4-0.8c-0.1,0-0.2-0.1-0.3-0.1c-0.5-0.2-0.9-0.4-1.4-0.6c0,0,0,0-0.1,0c-0.5-0.1-1-0.3-1.5-0.4
			c-0.1,0-0.3,0-0.4-0.1c-0.5-0.1-1.1-0.1-1.6-0.1l0,0h-8.3h-0.6c-1.8,0-3.3,1.5-3.3,3.3v25.7c0,1.8,1.5,3.3,3.3,3.3h0.9h8
			c0.6,0,1.1,0,1.7-0.1c0.1,0,0.3,0,0.4-0.1c0.5-0.1,1.1-0.2,1.6-0.4c0,0,0,0,0.1,0c0.5-0.1,1-0.4,1.4-0.6c0.1,0,0.2-0.1,0.3-0.1
			c0.5-0.2,1-0.5,1.4-0.8l0,0c0.4-0.3,0.8-0.6,1.3-1c0,0,0.1-0.1,0.1-0.1c0.8-0.8,1.5-1.6,2.1-2.6c0,0,0-0.1,0.1-0.1
			c0.3-0.5,0.5-1,0.8-1.5l0,0c0.6-1.4,0.9-2.9,0.9-4.4v-8.5C114.1,59.4,113.5,57.4,112.4,55.6z"/>
		<path d="M96.8,43.4c0.3,0,0.5-0.1,0.7-0.1h4.6c3.9,0,7.5,1.3,10.5,3.3c-0.3-2.2-0.8-4.4-1.4-6.6C104.8,16.5,83.2,0,58.7,0
			c-24.1,0-45,15.5-52.1,38.5c-0.9,3.1-1.6,6.2-1.9,9.4c3.2-2.8,7.4-4.6,12.1-4.6h4c0-0.1,0.1-0.3,0.1-0.5c5.1-16.8,20.4-28,37.9-28
			C76.3,14.9,91.9,26.6,96.8,43.4z"/>
		<path d="M98.3,88.4c-0.1,5.2-4.3,9.5-9.6,9.5H74c-1.7-3.5-5.3-6-9.5-6H50.8c-5.8,0-10.5,4.7-10.5,10.5v5.9
			c0,5.8,4.7,10.5,10.5,10.5h13.8c4.2,0,7.8-2.5,9.5-6h14.8c13.5,0,24.4-11,24.4-24.4v-3.6c-3.1,2.4-6.9,3.8-11.1,3.8H98.3z"/>
	</g>
</g>
</svg>
