<?xml version="1.0" encoding="utf-8"?>
<svg version="1.1" xmlns="http://www.w3.org/2000/svg" xmlns:xlink="http://www.w3.org/1999/xlink" x="0px" y="0px" viewBox="0 0 118.7 118.7" style="enable-background:new 0 0 118.7 118.7;" xml:space="preserve">
 <path d="M59.4,66C31.5,66,8.9,59.8,8.9,52.1v22.3c0,7.7,22.6,13.9,50.4,13.9c27.9,0,50.4-6.2,50.4-13.9V52.1	C109.8,59.8,87.2,66,59.4,66z"/>
 <path d="M59.4,96.5c-27.9,0-50.4-6.2-50.4-13.9v22.3c0,7.7,22.6,13.9,50.4,13.9c27.9,0,50.4-6.2,50.4-13.9V82.6	C109.8,90.2,87.2,96.5,59.4,96.5z"/>
 <path d="M59.4,35.5c-27.9,0-50.4-6.2-50.4-13.9v22.3c0,7.7,22.6,13.9,50.4,13.9c27.9,0,50.4-6.2,50.4-13.9V21.6	C109.8,29.3,87.2,35.5,59.4,35.5z"/>
 <path d="M59.4,26.9c27.3,0,49.6-6,50.3-13.5C108.9,6,86.7,0,59.4,0S9.8,6,9,13.5C9.8,20.9,32,26.9,59.4,26.9z"/>
</svg>
