<?xml version="1.0" encoding="utf-8"?>
<!-- Generator: Adobe Illustrator 26.4.1, SVG Export Plug-In . SVG Version: 6.00 Build 0)  -->
<svg version="1.1" id="Vrstva_1" xmlns="http://www.w3.org/2000/svg" xmlns:xlink="http://www.w3.org/1999/xlink" x="0px" y="0px"
	 viewBox="0 0 118.7 118.7" style="enable-background:new 0 0 118.7 118.7;" xml:space="preserve">
<g>
	<g>
		<path d="M46.6,88l29.8-23.9c3-2.4,3-7,0-9.5L46.6,30.7c-4-3.2-9.9-0.4-9.9,4.7v4.4c0,3.3-2.7,6.1-6.1,6.1H8.8
			c-3.3,0-6.1,2.7-6.1,6.1v14.8c0,3.3,2.7,6.1,6.1,6.1h21.9c3.3,0,6.1,2.7,6.1,6.1v4.4C36.8,88.3,42.7,91.2,46.6,88z"/>
		<path d="M89.3,118.7H75.9v-15.1h13.4c6.4,0,11.6-5.2,11.6-11.6V26.7c0-6.4-5.2-11.6-11.6-11.6H75.9V0h13.4C104,0,116,12,116,26.7
			V92C116,106.7,104,118.7,89.3,118.7z"/>
	</g>
</g>
</svg>
