<?xml version="1.0" encoding="utf-8"?>
<!-- Generator: Adobe Illustrator 26.4.1, SVG Export Plug-In . SVG Version: 6.00 Build 0)  -->
<svg version="1.1" id="Vrstva_1" xmlns="http://www.w3.org/2000/svg" xmlns:xlink="http://www.w3.org/1999/xlink" x="0px" y="0px"
	 viewBox="0 0 118.7 118.7" style="enable-background:new 0 0 118.7 118.7;" xml:space="preserve">
<g>
	<g>
		<path d="M12.7,10.6L12.7,10.6C5.7,10.6,0,16.3,0,23.3S5.7,36,12.7,36l0,0c7,0,12.7-5.7,12.7-12.7S19.7,10.6,12.7,10.6z"/>
		<path d="M43.2,31.1h67.7c4.3,0,7.8-3.5,7.8-7.8s-3.5-7.8-7.8-7.8H43.2c-4.3,0-7.8,3.5-7.8,7.8S38.9,31.1,43.2,31.1z"/>
		<path d="M12.7,46.8L12.7,46.8C5.7,46.8,0,52.5,0,59.5s5.7,12.7,12.7,12.7l0,0c7,0,12.7-5.7,12.7-12.7
			C25.4,52.5,19.7,46.8,12.7,46.8z"/>
		<path d="M110.9,51.6H43.2c-4.3,0-7.8,3.5-7.8,7.8s3.5,7.8,7.8,7.8h67.7c4.3,0,7.8-3.5,7.8-7.8S115.3,51.6,110.9,51.6z"/>
		<path d="M12.7,82.8L12.7,82.8C5.7,82.8,0,88.5,0,95.5c0,7,5.7,12.7,12.7,12.7l0,0c7,0,12.7-5.7,12.7-12.7
			C25.4,88.5,19.7,82.8,12.7,82.8z"/>
		<path d="M110.9,87.6H43.2c-4.3,0-7.8,3.5-7.8,7.8c0,4.3,3.5,7.8,7.8,7.8h67.7c4.3,0,7.8-3.5,7.8-7.8
			C118.7,91.2,115.3,87.6,110.9,87.6z"/>
	</g>
</g>
</svg>
