<?xml version="1.0" encoding="utf-8"?>
<svg version="1.1" xmlns="http://www.w3.org/2000/svg" xmlns:xlink="http://www.w3.org/1999/xlink" x="0px" y="0px" viewBox="0 0 118.7 118.7" style="enable-background:new 0 0 118.7 118.7;" xml:space="preserve">
	<path d="M113.3,39.4c-3.3-3.3-7.9-5.4-13-5.4h0V19.2H93V34H81.8V19.2h-7.3V34H63V19.2h-7.3V34H44.2V19.2H37V34H25.7V19.2h-7.3V34h0	c-1.3,0-2.5,0.1-3.7,0.4c-0.6,0.1-1.2,0.3-1.8,0.5c-1.2,0.4-2.3,0.8-3.3,1.4c-1,0.6-2,1.2-2.9,2c-0.9,0.8-1.7,1.6-2.5,2.5	s-1.4,1.9-2,2.9C0.8,46.2,0,49.2,0,52.4v1.8v3v7.3v1.8c0,4.4,1.6,8.5,4.2,11.7c3.4,4.1,8.5,6.7,14.2,6.7h0v14.7h7.3V84.8H37v14.7	h7.3V84.8h11.5v14.7H63V84.8h11.5v14.7h7.3V84.8H93v14.7h7.3V84.8h0c6.8,0,12.6-3.7,15.8-9.1c1.6-2.7,2.6-5.9,2.6-9.3v-1.8v-7.3v-3	v-1.8c0-4.4-1.6-8.5-4.2-11.7C114.2,40.2,113.8,39.8,113.3,39.4z"/>
</svg>
