<svg xmlns="http://www.w3.org/2000/svg" viewBox="0 0 118.7 118.7">
 <path d="M7.6,33.6h80.5c4.2,0,7.6-3.4,7.6-7.6V15.9c0-4.2-3.4-7.6-7.6-7.6H7.6C3.4,8.3,0,11.7,0,15.9V26C0,30.2,3.4,33.6,7.6,33.6z M81.4,15.6c3,0,5.3,2.4,5.3,5.3s-2.4,5.3-5.3,5.3c-3,0-5.3-2.4-5.3-5.3S78.5,15.6,81.4,15.6z M65.8,15.6c3,0,5.3,2.4,5.3,5.3	s-2.4,5.3-5.3,5.3c-2.9,0-5.3-2.4-5.3-5.3S62.9,15.6,65.8,15.6z"/>
 <path d="M7.6,66.7h35.1c0.1-1.6,0.2-3.3,0.4-4.9c0.9-8.3,5.1-15.5,11.2-20.4H7.6C3.4,41.4,0,44.8,0,49v10.1	C0,63.3,3.4,66.7,7.6,66.7z"/>
 <path d="M43.1,89.3c-0.6-4.9-0.8-9.9-0.7-14.8H7.6c-4.2,0-7.6,3.4-7.6,7.6v10.1c0,4.2,3.4,7.6,7.6,7.6h38.5	c-1.5-3.1-2.5-6.5-3-10.1L43.1,89.3z"/>
 <path d="M118,62.5c-1.2-11-9.9-19.6-20.9-20.9l-0.2,0c-8.6-1-17.3-1-25.9,0h-0.1h-0.1c-0.7,0.1-1.4,0.2-2,0.3	c-1.3,0.3-2.6,0.6-3.9,1.1c-3.1,1.2-5.9,3-8.2,5.3c-0.6,0.6-1.1,1.2-1.7,1.9c-1.1,1.4-2.1,2.9-2.9,4.5c-0.1,0.1-0.1,0.3-0.2,0.4	c-0.4,0.8-0.7,1.6-0.9,2.4c-0.2,0.6-0.4,1.3-0.6,1.9c-0.2,1-0.4,2-0.6,3l0,0c0,0.5-0.1,1-0.1,1.5c-0.1,0.9-0.2,1.8-0.2,2.7	c-0.4,4.9-0.5,9.8-0.2,14.7c0,0,0,0.1,0,0.2c0.1,2.3,0.3,4.7,0.6,7l0,0l0,0.2l0,0.2c0.1,0.9,0.3,1.8,0.5,2.7	c0,0.2,0.1,0.4,0.2,0.6c0.2,0.9,0.5,1.7,0.8,2.5v0c0.3,0.9,0.7,1.7,1.1,2.5c0.1,0.1,0.1,0.3,0.2,0.4c3.6,6.6,10.3,11.3,18.1,12.2	l0.1,0c8.6,1,17.3,1,25.9,0l0.1,0c11-1.2,19.6-9.9,20.9-20.9l0-0.3C119,79.9,119,71.2,118,62.5z M88.2,94.9h-8.3V74.5h8.3V94.9z M90.3,64.1c0,0.1,0,0.2-0.1,0.3c-0.1,0.3-0.1,0.5-0.2,0.8c0,0.1-0.1,0.3-0.1,0.4c-0.1,0.3-0.3,0.5-0.4,0.8c0,0.1-0.1,0.1-0.1,0.2	l0,0c-1.2,1.7-3.1,2.8-5.3,2.8c-2.1,0-4-1.1-5.2-2.7c-0.1-0.2-0.3-0.4-0.3-0.6c-0.1-0.1-0.2-0.3-0.2-0.4c-0.1-0.2-0.2-0.3-0.2-0.5	c-0.1-0.2-0.1-0.4-0.2-0.6c0-0.1-0.1-0.3-0.1-0.4c-0.1-0.4-0.1-0.8-0.1-1.2c0-0.4,0-0.8,0.1-1.2c0-0.3,0.1-0.5,0.2-0.7	c0-0.1,0.1-0.3,0.1-0.4c0.1-0.3,0.3-0.6,0.4-0.9c0,0,0,0,0-0.1c0.2-0.3,0.4-0.6,0.6-0.9c1.2-1.4,2.9-2.3,4.9-2.3	c0.7,0,1.3,0.1,2,0.3c1.2,0.4,2.3,1.2,3,2.1c0.1,0.1,0.1,0.1,0.2,0.2c0.1,0.2,0.2,0.3,0.3,0.5c0.1,0.2,0.2,0.3,0.3,0.5	c0.1,0.2,0.1,0.3,0.2,0.5c0.1,0.2,0.2,0.5,0.2,0.7c0,0.1,0.1,0.3,0.1,0.4c0.1,0.4,0.1,0.8,0.1,1.2C90.4,63.3,90.4,63.7,90.3,64.1z"/>
</svg>
