<?xml version="1.0" encoding="utf-8"?>
<svg version="1.1" xmlns="http://www.w3.org/2000/svg" viewBox="0 0 118.7 118.7">
	<mask id="mask">
  <rect fill="white" x="0" y="0" width="100%" height="100%" rx="10" ry="10" />
  <path fill="black" d="M95.1,54.5L65.3,30.6c-4-3.2-9.9-0.4-9.9,4.7v4.4c0,3.3-2.7,6.1-6.1,6.1H27.4c-3.3,0-6.1,2.7-6.1,6.1v14.8	c0,3.3,2.7,6.1,6.1,6.1h22c3.3,0,6.1,2.7,6.1,6.1v4.4c0,5.1,5.9,7.9,9.9,4.7l29.8-23.9C98.1,61.6,98.1,57,95.1,54.5z"/>
 </mask>
 <rect x="0" y="0" width="100%" height="100%" fill="#DC3545" mask="url(#mask)"/>
</svg>
