<svg xmlns="http://www.w3.org/2000/svg" viewBox="0 0 118.7 118.7">
 <path d="M59.4,17.7c-26.6,0-49.9,16.5-59,41c-1.4,3.7,0.9,7.8,4.7,8.7l0,0c3.3,0.8,6.6-1,7.8-4.1C20,44,38.4,31,59.4,31	s39.4,13,46.5,32.3c1.2,3.1,4.5,4.9,7.8,4.1l0,0c3.8-0.9,6-5,4.7-8.7C109.3,34.2,86,17.7,59.4,17.7z"/>
 <path d="M66.6,47.1c0-4-3.3-7.3-7.3-7.3s-7.3,3.3-7.3,7.3s3.3,7.3,7.3,7.3C63.4,54.4,66.6,51.1,66.6,47.1z"/>
 <path d="M24.1,67.3c-4,0-7.3,3.3-7.3,7.3s3.3,7.3,7.3,7.3s7.3-3.3,7.3-7.3S28.1,67.3,24.1,67.3z"/>
 <path d="M37.1,48.1c-4,0-7.3,3.3-7.3,7.3s3.3,7.3,7.3,7.3s7.3-3.3,7.3-7.3C44.3,51.4,41.1,48.1,37.1,48.1z"/>
 <path d="M94.3,67.3c-4,0-7.3,3.3-7.3,7.3s3.3,7.3,7.3,7.3c4,0,7.3-3.3,7.3-7.3S98.3,67.3,94.3,67.3z"/>
 <path d="M84.4,50.6L84.4,50.6c-3-2.1-7.1-1.3-9.2,1.7L59.5,74.9c0,0-0.1,0-0.1,0c-7.3,0-13.1,5.9-13,13.2	c0.1,6.9,5.9,12.8,12.9,12.9c7.3,0.1,13.2-5.8,13.2-13c0-2.2-0.6-4.3-1.6-6.2l15.2-22C88.1,56.8,87.4,52.7,84.4,50.6z"/>
</svg>
