<svg xmlns="http://www.w3.org/2000/svg" viewBox="0 0 118.7 118.7">
	<path d="M107,51.7C107.1,51.7,107.1,51.7,107,51.7L95.4,24.8c-1.5-3.5-5-5.8-8.8-5.8H32.1c-3.8,0-7.3,2.3-8.8,5.8L11.6,51.7	c0,0,0,0,0.1,0H107z"/>
	<path d="M109.4,61.2c-0.8-0.2-1.5-0.2-2.3-0.2H11.7c-0.8,0-1.6,0.1-2.3,0.2C4,62.2,0,66.9,0,72.6v15.5c0,6.4,5.2,11.7,11.7,11.7 h95.4c6.4,0,11.7-5.2,11.7-11.7V72.6C118.7,66.9,114.7,62.2,109.4,61.2z M72.8,88.5c-4.5,0-8.2-3.7-8.2-8.2s3.7-8.2,8.2-8.2	c4.5,0,8.2,3.7,8.2,8.2S77.3,88.5,72.8,88.5z M96.7,88.5c-4.5,0-8.2-3.7-8.2-8.2s3.7-8.2,8.2-8.2c4.5,0,8.2,3.7,8.2,8.2	S101.3,88.5,96.7,88.5z"/>
</svg>
